<svg width="163" height="30" viewBox="0 0 163 30" fill="none" xmlns="http://www.w3.org/2000/svg">
<path d="M19.8453 23.4736C21.7582 22.3525 23.1393 20.7036 23.9889 18.527C24.3748 17.5381 24.5519 16.4705 24.6284 15.4569C24.6495 15.1806 24.6379 14.9105 24.6316 14.6339C24.6096 13.6672 24.4623 12.714 24.1315 11.8114C24.1234 11.7899 24.1302 11.7775 24.1519 11.7743L29.4639 10.9761C29.474 10.9744 29.4802 10.9789 29.4824 10.9896C29.662 11.8207 29.7778 12.4047 29.8298 12.7416C30.0938 14.4479 30.043 16.2267 29.7315 17.9208C29.6606 18.3066 29.5483 18.8599 29.4177 19.305C29.2755 19.7891 29.137 20.2143 29.002 20.5805C27.7364 24.021 25.3654 26.8226 22.2949 28.5349C22.2913 28.5369 22.2871 28.5373 22.2832 28.536C22.2794 28.5347 22.2761 28.5319 22.2741 28.5281L19.7591 23.5526C19.7575 23.5495 19.7566 23.5462 19.7563 23.5427C19.756 23.5393 19.7563 23.5358 19.7573 23.5325C19.7583 23.5292 19.7598 23.5261 19.7619 23.5235C19.764 23.5208 19.7666 23.5187 19.7695 23.5171C19.7915 23.5049 19.8168 23.4904 19.8453 23.4736Z" fill="#30B4FE"/>
<path d="M20.1861 29.2449C18.6671 29.7325 17.0679 29.9976 15.4707 30C14.9149 30.0007 14.4982 29.988 14.2207 29.962C13.5069 29.8954 13.0498 29.8422 12.8492 29.8024C12.3825 29.7098 11.8886 29.6274 11.4468 29.5121C9.26674 28.9417 7.29981 27.9509 5.546 26.5395C5.20823 26.2677 4.65877 25.7671 4.27139 25.3635C2.00429 23.0014 0.635909 20.1293 0.13688 16.9358C0.125705 16.8654 0.128129 16.7883 0.118982 16.7249C0.00225276 15.9073 -0.0122938 15.1251 0.00724473 14.315C0.0572412 12.2264 0.587892 10.1721 1.52507 8.29392C1.52566 8.29235 1.5391 8.27119 1.56537 8.23043C1.59037 8.19185 1.58853 8.1438 1.60867 8.10766C1.89684 7.5917 2.08787 7.25604 2.18175 7.10068C2.50498 6.56485 2.91502 5.99625 3.41187 5.39487C3.53643 5.24353 3.69297 5.08107 3.84668 4.90837C4.50431 4.16907 5.33117 3.47448 6.18843 2.84774C6.62503 2.52876 6.99087 2.29033 7.28595 2.13245C7.55015 1.99107 7.83569 1.82822 8.07546 1.70603C10.3333 0.555149 12.7383 -0.0128695 15.2903 0.00197081C15.3189 0.00210025 15.3712 0.0202958 15.3914 0.0172351C15.4848 0.00293867 15.5683 0.00152865 15.6419 0.0130041C15.7196 0.0251426 15.7898 -0.00693313 15.8455 0.00140149C16.0821 0.03717 16.3756 0.0450002 16.5552 0.0612496C16.7678 0.080949 16.9803 0.10153 17.1927 0.122995C17.2442 0.128477 17.3416 0.150669 17.4156 0.153542C17.4538 0.155206 17.4837 0.157774 17.5053 0.161246C18.2309 0.277713 18.954 0.432156 19.6746 0.624577C19.6847 0.627282 19.6942 0.63191 19.7024 0.638197C19.7107 0.644485 19.7176 0.652307 19.7228 0.661214C19.728 0.67012 19.7313 0.679936 19.7326 0.690098C19.7339 0.70026 19.7331 0.710567 19.7303 0.720428C19.5886 1.22638 19.455 1.74632 19.3296 2.28024C19.3273 2.29054 19.3142 2.32711 19.2903 2.38995C19.2708 2.44118 19.2735 2.50124 19.2633 2.54701C19.1535 3.04472 19.009 3.58381 18.9003 4.03185C18.7517 4.64537 18.607 5.25984 18.4663 5.87524C18.4579 5.91243 18.4595 5.94633 18.4713 5.97693C18.4726 5.98022 18.4729 5.9838 18.4723 5.98727C18.4716 5.99074 18.4699 5.99396 18.4675 5.99657C18.465 5.99919 18.4619 6.00109 18.4584 6.00207C18.4549 6.00305 18.4511 6.00307 18.4476 6.00213C18.03 5.88435 17.5952 5.73534 17.2013 5.6553C16.8388 5.58125 16.473 5.52712 16.1039 5.4929C15.9591 5.47924 15.8189 5.45811 15.6425 5.45126C12.3274 5.32467 9.1843 6.8204 7.26761 9.54147C7.09014 9.79311 6.9506 10.0637 6.78076 10.3178C6.72584 10.4002 6.74158 10.4694 6.65281 10.5448C6.64446 10.552 6.6404 10.5611 6.64061 10.572C6.6419 10.6129 6.62813 10.6476 6.5993 10.6761C6.55677 10.718 6.57008 10.7396 6.54814 10.7825C6.0172 11.8208 5.72798 12.9699 5.62834 14.1238C5.59183 14.5449 5.58339 15.0187 5.62117 15.4408C5.66015 15.8782 5.69614 16.2867 5.80356 16.7647C5.96881 17.5003 6.20803 18.2106 6.52121 18.8955C7.06845 20.092 7.89688 21.1705 8.89139 22.0468C9.31811 22.4227 10.0141 22.9093 10.5707 23.203C10.6748 23.2581 10.7784 23.3242 10.8559 23.363C11.5986 23.7361 12.3453 24.0139 13.0962 24.1964C13.6391 24.3284 14.3234 24.4519 14.9334 24.4438C15.0007 24.4429 15.0667 24.4596 15.1258 24.4609C16.4714 24.4899 17.7468 24.2783 19.0051 23.7886C19.0096 23.7869 19.0147 23.787 19.0191 23.7888C19.0236 23.7907 19.0271 23.7942 19.0288 23.7986C19.0504 23.8499 19.0678 23.8994 19.081 23.9472C19.5243 25.5645 19.9663 27.1821 20.4068 28.8001C20.4377 28.9143 20.4646 29.0292 20.4875 29.1449C20.4883 29.1491 20.4875 29.1534 20.4852 29.157C20.483 29.1605 20.4794 29.163 20.4753 29.164C20.3787 29.187 20.2823 29.214 20.1861 29.2449Z" fill="#0E0E0E"/>
<path d="M23.4064 9.86157C22.4992 10.0331 21.6413 10.1629 20.6751 10.3304C19.6537 10.5072 18.6305 10.6716 17.6053 10.8239C17.4354 10.8491 17.181 10.8995 16.8419 10.9749C16.8299 10.9776 16.8265 10.9734 16.8316 10.9624C16.8383 10.948 16.8473 10.9365 16.8586 10.9279C16.8654 10.9228 16.8707 10.9165 16.8746 10.909L21.8595 1.47454C21.8658 1.46271 21.8748 1.46036 21.8866 1.4675C21.9332 1.49637 21.9799 1.52978 22.025 1.5534C22.6992 1.90276 23.2478 2.22271 23.6707 2.51327C24.9851 3.41621 26.1266 4.49408 27.0951 5.74687C27.6809 6.5045 28.0766 7.10808 28.5342 7.93817C28.5365 7.94227 28.5372 7.94704 28.5361 7.95156C28.535 7.95607 28.5323 7.96 28.5284 7.96258C28.3198 8.10158 28.0727 8.25118 27.8978 8.36715C26.6067 9.22135 25.3025 10.0556 23.9851 10.8699C23.9754 10.8758 23.9677 10.8738 23.9622 10.8638L23.4237 9.86966C23.4201 9.86273 23.4143 9.86003 23.4064 9.86157Z" fill="#30B4FE"/>
<path d="M46.382 24.1141C45.0966 24.1141 44.002 23.8611 43.0981 23.3553C42.2024 22.8411 41.4768 22.1528 40.9212 21.2904C40.3739 20.428 39.9676 19.4619 39.7022 18.3921C39.4451 17.3141 39.3166 16.2194 39.3166 15.1082C39.3166 13.9887 39.4493 12.8982 39.7146 11.8367C39.9883 10.767 40.4071 9.8009 40.971 8.93846C41.5432 8.06772 42.2729 7.37943 43.1602 6.87358C44.0559 6.35943 45.1256 6.10236 46.3695 6.10236C47.4061 6.10236 48.2768 6.25163 48.9817 6.55016C49.6949 6.84041 50.2712 7.21772 50.7107 7.68211C51.1585 8.13821 51.5151 8.61919 51.7805 9.12504L50.2256 9.94602C49.9685 9.53968 49.6741 9.17065 49.3424 8.83894C49.019 8.50724 48.6168 8.24187 48.1359 8.04285C47.6632 7.84382 47.0744 7.74431 46.3695 7.74431C45.4241 7.74431 44.6156 7.95992 43.9439 8.39114C43.2805 8.82236 42.7415 9.39455 42.3268 10.1077C41.9122 10.8209 41.6095 11.6128 41.4188 12.4836C41.2281 13.3543 41.1327 14.2292 41.1327 15.1082C41.1327 16.0287 41.2322 16.9285 41.4312 17.8075C41.6302 18.6782 41.9412 19.466 42.3642 20.1709C42.7871 20.8675 43.3302 21.4231 43.9937 21.8377C44.6571 22.2524 45.4532 22.4597 46.382 22.4597C47.4102 22.4597 48.2354 22.2316 48.8573 21.7755C49.4876 21.3194 49.9893 20.7638 50.3624 20.1087L51.9546 20.7182C51.6727 21.3236 51.2829 21.8833 50.7854 22.3975C50.2961 22.9116 49.6866 23.3263 48.9568 23.6414C48.2271 23.9565 47.3688 24.1141 46.382 24.1141Z" fill="black"/>
<path d="M60.1374 24.1141C58.4623 24.1141 57.1396 23.5211 56.1693 22.3353C55.1991 21.1411 54.714 19.5199 54.714 17.4716C54.714 16.1033 54.9337 14.9216 55.3732 13.9265C55.8127 12.9314 56.4388 12.1643 57.2515 11.6253C58.0642 11.078 59.0262 10.8043 60.1374 10.8043C61.2569 10.8043 62.223 11.0738 63.0357 11.6128C63.8483 12.1436 64.4703 12.9065 64.9015 13.9016C65.341 14.8968 65.5608 16.0785 65.5608 17.4468C65.5608 18.815 65.341 20.0009 64.9015 21.0043C64.462 21.9994 63.8359 22.7665 63.0232 23.3055C62.2105 23.8446 61.2486 24.1141 60.1374 24.1141ZM60.1374 22.4721C61.2818 22.4721 62.1732 22.0285 62.8118 21.1411C63.4586 20.2538 63.782 19.0224 63.782 17.4468C63.782 15.8628 63.4586 14.6314 62.8118 13.7524C62.1732 12.8733 61.2818 12.4338 60.1374 12.4338C58.9764 12.4338 58.0766 12.8733 57.4381 13.7524C56.8079 14.6231 56.4927 15.8628 56.4927 17.4716C56.4927 19.0555 56.812 20.287 57.4505 21.166C58.0891 22.0368 58.9847 22.4721 60.1374 22.4721Z" fill="black"/>
<path d="M68.7539 23.8155V11.1028H70.4954V12.7324C70.852 12.1104 71.3247 11.6336 71.9134 11.3019C72.5105 10.9702 73.1864 10.8043 73.941 10.8043C75.4254 10.8043 76.5283 11.2646 77.2498 12.185C77.9712 13.0972 78.332 14.4863 78.332 16.3521V23.8155H76.5905V16.0411C76.5905 14.8553 76.3417 13.9555 75.8442 13.3419C75.3466 12.7199 74.6251 12.4089 73.6798 12.4089C72.6349 12.4089 71.8429 12.7282 71.3039 13.3667C70.7649 14.0053 70.4954 14.9465 70.4954 16.1904V23.8155H68.7539Z" fill="black"/>
<path d="M85.9091 24.1141C85.0632 24.1141 84.2506 23.9316 83.471 23.5668C82.6915 23.2019 82.0364 22.696 81.5057 22.0492L82.7745 20.967C83.2306 21.4646 83.7364 21.8502 84.292 22.1238C84.8476 22.3975 85.3949 22.5343 85.934 22.5343C86.7466 22.5343 87.3727 22.3685 87.8123 22.0368C88.2601 21.705 88.484 21.2407 88.484 20.6436C88.484 20.2704 88.3803 19.9304 88.173 19.6236C87.974 19.3168 87.6464 19.0307 87.1903 18.7653C86.7342 18.4916 86.133 18.2138 85.3867 17.9319C84.0432 17.4343 83.0771 16.8911 82.4884 16.3024C81.8996 15.7053 81.6052 14.9672 81.6052 14.0882C81.6052 13.1097 81.9825 12.3177 82.7371 11.7124C83.5001 11.107 84.491 10.8043 85.7101 10.8043C86.5145 10.8043 87.2691 10.9619 87.974 11.277C88.6788 11.5838 89.2801 12.0275 89.7776 12.608L88.5586 13.628C87.7459 12.7987 86.7881 12.3841 85.6852 12.3841C84.9637 12.3841 84.3915 12.5375 83.9686 12.8443C83.554 13.1428 83.3466 13.5575 83.3466 14.0882C83.3466 14.5775 83.5623 15.0004 83.9935 15.357C84.4247 15.7053 85.2125 16.0909 86.3569 16.5138C87.2857 16.8621 88.032 17.2311 88.5959 17.6209C89.1598 18.0024 89.5662 18.4377 89.8149 18.927C90.072 19.4163 90.2005 19.9802 90.2005 20.6187C90.2005 21.705 89.8191 22.5592 89.0562 23.1811C88.2932 23.8031 87.2442 24.1141 85.9091 24.1141Z" fill="black"/>
<path d="M96.5837 24.1141C95.7461 24.1141 95.1076 23.8611 94.6681 23.3553C94.2369 22.8411 94.0213 22.0989 94.0213 21.1287V12.6328H91.9191V11.1028H94.0213V6.69943L95.7627 5.85358V11.1028H98.9222V12.6328H95.7627V20.6063C95.7627 21.2697 95.8705 21.7507 96.0861 22.0492C96.3101 22.3394 96.6666 22.4846 97.1559 22.4846C97.753 22.4846 98.3791 22.2689 99.0342 21.8377L98.8352 23.5543C98.5035 23.745 98.1469 23.886 97.7654 23.9772C97.384 24.0685 96.9901 24.1141 96.5837 24.1141Z" fill="black"/>
<path d="M101.673 23.8155V11.1028H103.414V23.8155H101.673ZM102.531 8.55285C102.216 8.55285 101.946 8.44089 101.723 8.21699C101.507 7.99309 101.399 7.72358 101.399 7.40846C101.399 7.07675 101.507 6.79894 101.723 6.57504C101.946 6.34285 102.216 6.22675 102.531 6.22675C102.863 6.22675 103.136 6.34285 103.352 6.57504C103.576 6.79894 103.688 7.07675 103.688 7.40846C103.688 7.72358 103.576 7.99309 103.352 8.21699C103.136 8.44089 102.863 8.55285 102.531 8.55285Z" fill="black"/>
<path d="M112.195 24.1141C111.067 24.1141 110.093 23.8363 109.272 23.2807C108.459 22.7168 107.833 21.9331 107.394 20.9297C106.954 19.9263 106.734 18.7653 106.734 17.4468C106.734 16.0453 106.962 14.8511 107.418 13.8643C107.883 12.8692 108.526 12.1104 109.347 11.588C110.168 11.0655 111.117 10.8043 112.195 10.8043C113.132 10.8043 113.982 11.0241 114.745 11.4636C115.508 11.9031 116.113 12.5831 116.561 13.5036C117.009 14.4241 117.233 15.6058 117.233 17.0487C117.233 17.198 117.229 17.368 117.22 17.5587C117.212 17.7411 117.2 17.9319 117.183 18.1309H108.538C108.604 19.0099 108.783 19.7811 109.073 20.4446C109.371 21.0997 109.782 21.618 110.304 21.9994C110.835 22.3726 111.486 22.5592 112.257 22.5592C112.78 22.5592 113.281 22.468 113.762 22.2855C114.243 22.0948 114.691 21.8046 115.106 21.4148L116.126 22.5841C115.661 23.0236 115.089 23.3885 114.409 23.6787C113.738 23.9689 112.999 24.1141 112.195 24.1141ZM108.513 16.6009H115.454C115.454 15.8131 115.334 15.0958 115.093 14.4489C114.861 13.8021 114.5 13.288 114.011 12.9065C113.53 12.525 112.925 12.3343 112.195 12.3343C111.208 12.3343 110.367 12.6743 109.67 13.3543C108.982 14.0343 108.596 15.1165 108.513 16.6009Z" fill="black"/>
<path d="M120.58 23.8155V11.1028H122.321V12.7324C122.678 12.1104 123.151 11.6336 123.739 11.3019C124.337 10.9702 125.012 10.8043 125.767 10.8043C127.251 10.8043 128.354 11.2646 129.076 12.185C129.797 13.0972 130.158 14.4863 130.158 16.3521V23.8155H128.417V16.0411C128.417 14.8553 128.168 13.9555 127.67 13.3419C127.173 12.7199 126.451 12.4089 125.506 12.4089C124.461 12.4089 123.669 12.7282 123.13 13.3667C122.591 14.0053 122.321 14.9465 122.321 16.1904V23.8155H120.58Z" fill="black"/>
<path d="M137.097 24.1141C136.259 24.1141 135.621 23.8611 135.181 23.3553C134.75 22.8411 134.535 22.0989 134.535 21.1287V12.6328H132.432V11.1028H134.535V6.69943L136.276 5.85358V11.1028H139.436V12.6328H136.276V20.6063C136.276 21.2697 136.384 21.7507 136.599 22.0492C136.823 22.3394 137.18 22.4846 137.669 22.4846C138.266 22.4846 138.892 22.2689 139.548 21.8377L139.348 23.5543C139.017 23.745 138.66 23.886 138.279 23.9772C137.897 24.0685 137.503 24.1141 137.097 24.1141Z" fill="black"/>
<path d="M141.316 23.8155L147.797 6.40089H150.509L156.989 23.8155H153.942L152.536 19.9346H145.782L144.401 23.8155H141.316ZM146.702 17.3348H151.591L149.675 12.0731C149.625 11.9321 149.567 11.7663 149.501 11.5755C149.435 11.3848 149.368 11.1982 149.302 11.0158C149.236 10.825 149.186 10.655 149.153 10.5058C149.111 10.655 149.057 10.825 148.991 11.0158C148.933 11.1982 148.871 11.3848 148.804 11.5755C148.738 11.7663 148.68 11.9321 148.63 12.0731L146.702 17.3348Z" fill="black"/>
<path d="M159.413 23.8155V6.40089H162.286V23.8155H159.413Z" fill="black"/>
</svg>
