<svg width="173" height="35" viewBox="0 0 173 35" fill="none" xmlns="http://www.w3.org/2000/svg">
<path d="M46.5147 18.6687C45.1158 18.6687 43.9374 18.4016 42.9793 17.8675C42.0213 17.3334 41.2498 16.6255 40.6648 15.7438C40.0798 14.8536 39.6559 13.8701 39.3931 12.7934C39.1388 11.7082 39.0116 10.6103 39.0116 9.49967C39.0116 8.46535 39.143 7.40983 39.4058 6.33311C39.6771 5.2564 40.1053 4.26023 40.6903 3.3446C41.2752 2.42897 42.0467 1.69137 43.0048 1.13182C43.9628 0.572269 45.1328 0.292493 46.5147 0.292493C47.6423 0.292493 48.6342 0.491728 49.4905 0.890196C50.3468 1.28867 51.0589 1.80583 51.627 2.44168C52.2035 3.06906 52.6358 3.73459 52.9241 4.43827L49.6685 5.91345C49.3718 5.47259 49.0751 5.09532 48.7783 4.78163C48.4816 4.46794 48.151 4.22632 47.7864 4.05675C47.4218 3.88719 46.9979 3.80241 46.5147 3.80241C45.811 3.80241 45.2218 3.97621 44.747 4.32381C44.2722 4.67141 43.8907 5.12923 43.6025 5.69726C43.3227 6.26529 43.1192 6.88419 42.992 7.55396C42.8649 8.21524 42.8013 8.86382 42.8013 9.49967C42.8013 10.161 42.8734 10.8265 43.0175 11.4963C43.1616 12.166 43.382 12.7764 43.6788 13.3275C43.9755 13.8786 44.357 14.3237 44.8233 14.6628C45.2981 14.9935 45.8619 15.1588 46.5147 15.1588C47.1929 15.1588 47.7822 14.9468 48.2824 14.5229C48.7826 14.0905 49.2361 13.5395 49.6431 12.8697L52.975 14.1287C52.568 15.0019 52.0678 15.7819 51.4744 16.4686C50.8809 17.1554 50.173 17.6937 49.3506 18.0837C48.5367 18.4737 47.5914 18.6687 46.5147 18.6687Z" fill="black"/>
<path d="M60.5895 18.7069C58.7413 18.7069 57.2831 18.1049 56.2149 16.901C55.1466 15.6887 54.6125 14.027 54.6125 11.9159C54.6125 10.5255 54.8541 9.32163 55.3374 8.30426C55.8291 7.27842 56.5201 6.48996 57.4103 5.93888C58.3089 5.37933 59.3687 5.09956 60.5895 5.09956C61.8019 5.09956 62.8489 5.37933 63.7307 5.93888C64.6209 6.48996 65.3076 7.27418 65.7908 8.29155C66.2741 9.30892 66.5157 10.517 66.5157 11.9159C66.5157 13.3148 66.2783 14.5229 65.8035 15.5403C65.3288 16.5577 64.6463 17.3419 63.7561 17.893C62.8659 18.4356 61.8104 18.7069 60.5895 18.7069ZM60.5895 15.3495C61.3695 15.3495 61.9715 15.0486 62.3954 14.4466C62.8277 13.8447 63.0439 13.0011 63.0439 11.9159C63.0439 10.8223 62.8235 9.97444 62.3826 9.3725C61.9503 8.76208 61.3526 8.45687 60.5895 8.45687C59.818 8.45687 59.2118 8.76632 58.771 9.38522C58.3301 9.99564 58.1097 10.8392 58.1097 11.9159C58.1097 12.9842 58.3301 13.8235 58.771 14.4339C59.2118 15.0443 59.818 15.3495 60.5895 15.3495Z" fill="black"/>
<path d="M69.0997 18.4016V5.40477H72.5969V6.62561C73.0123 6.11692 73.5125 5.73541 74.0975 5.48107C74.6909 5.22673 75.3649 5.09956 76.1195 5.09956C77.5353 5.09956 78.6417 5.54042 79.4387 6.42213C80.2356 7.29538 80.6341 8.51622 80.6341 10.0847V18.4016H77.1369V11.5217C77.1369 10.4365 76.9673 9.65652 76.6282 9.18175C76.2891 8.6985 75.7337 8.45687 74.9622 8.45687C74.1483 8.45687 73.5506 8.70273 73.1691 9.19446C72.7876 9.67771 72.5969 10.4365 72.5969 11.4708V18.4016H69.0997Z" fill="black"/>
<path d="M88.3931 18.7069C87.3503 18.7069 86.3499 18.4864 85.3918 18.0456C84.4338 17.5962 83.6835 16.9985 83.1409 16.2525L85.3791 14.3576C85.8115 14.7985 86.3117 15.1545 86.8797 15.4258C87.4478 15.6971 87.9904 15.8328 88.5075 15.8328C89.101 15.8328 89.5588 15.7395 89.881 15.553C90.2031 15.358 90.3642 15.0825 90.3642 14.7264C90.3642 14.506 90.2879 14.311 90.1353 14.1414C89.9827 13.9634 89.7029 13.7769 89.296 13.5819C88.889 13.3869 88.3041 13.1495 87.541 12.8697C86.0658 12.3356 85.0273 11.7591 84.4253 11.1402C83.8234 10.5128 83.5224 9.7201 83.5224 8.76208C83.5224 7.66841 83.9633 6.78669 84.845 6.11692C85.7267 5.43868 86.8797 5.09956 88.3041 5.09956C89.2621 5.09956 90.1523 5.28183 90.9746 5.64639C91.797 6.01095 92.5049 6.54083 93.0984 7.23603L90.8475 9.10544C90.0845 8.35089 89.2112 7.97362 88.2278 7.97362C87.7615 7.97362 87.3842 8.06264 87.0959 8.24068C86.8077 8.41024 86.6636 8.63067 86.6636 8.90197C86.6636 9.17327 86.8374 9.42337 87.185 9.65228C87.5326 9.87271 88.1896 10.1313 89.1561 10.428C90.1735 10.7332 91.0001 11.0851 91.6359 11.4835C92.2803 11.882 92.7508 12.3483 93.0475 12.8824C93.3527 13.4081 93.5054 14.0185 93.5054 14.7137C93.5054 15.96 93.0475 16.9392 92.1319 17.6513C91.2248 18.355 89.9785 18.7069 88.3931 18.7069Z" fill="black"/>
<path d="M99.7723 18.7069C98.6871 18.7069 97.8775 18.4186 97.3433 17.8421C96.8177 17.2571 96.5549 16.3839 96.5549 15.2224V8.4823H94.7236V5.40477H96.5549V1.69137L100.027 0.03815V5.40477H102.888V8.4823H100.027V14.701C100.027 15.0316 100.099 15.2817 100.243 15.4513C100.395 15.6124 100.629 15.6929 100.942 15.6929C101.578 15.6929 102.278 15.5106 103.041 15.1461L102.646 18.1219C102.248 18.3084 101.811 18.4525 101.337 18.5542C100.862 18.656 100.34 18.7069 99.7723 18.7069Z" fill="black"/>
<path d="M105.188 18.4016V5.40477H108.685V18.4016H105.188ZM106.93 4.0186C106.379 4.0186 105.904 3.81937 105.506 3.4209C105.107 3.02243 104.908 2.54766 104.908 1.99658C104.908 1.44551 105.103 0.974978 105.493 0.584987C105.892 0.194996 106.371 0 106.93 0C107.515 0 107.998 0.190756 108.38 0.572269C108.77 0.953781 108.965 1.42855 108.965 1.99658C108.965 2.55614 108.766 3.03515 108.367 3.43362C107.977 3.82361 107.498 4.0186 106.93 4.0186Z" fill="black"/>
<path d="M117.688 18.7069C116.425 18.7069 115.335 18.4313 114.42 17.8802C113.504 17.3292 112.801 16.5449 112.309 15.5276C111.817 14.5102 111.571 13.2978 111.571 11.8905C111.571 10.5001 111.821 9.2962 112.321 8.27883C112.822 7.26146 113.53 6.47724 114.445 5.92617C115.361 5.37509 116.442 5.09956 117.688 5.09956C118.765 5.09956 119.74 5.32423 120.613 5.77356C121.486 6.21442 122.177 6.89267 122.686 7.8083C123.203 8.71545 123.462 9.86423 123.462 11.2546C123.462 11.492 123.457 11.7803 123.449 12.1194C123.44 12.45 123.415 12.7807 123.373 13.1113H114.992C115.009 13.6454 115.128 14.1075 115.348 14.4975C115.577 14.8875 115.891 15.1927 116.289 15.4131C116.688 15.6251 117.158 15.7311 117.701 15.7311C118.345 15.7311 118.892 15.6293 119.341 15.4258C119.791 15.2139 120.223 14.8705 120.638 14.3958L122.648 16.4432C122.063 17.1299 121.359 17.681 120.537 18.0964C119.723 18.5034 118.773 18.7069 117.688 18.7069ZM115.03 10.4407H120.104C120.053 9.94053 119.926 9.51239 119.723 9.15631C119.519 8.80023 119.24 8.53317 118.884 8.35513C118.536 8.16862 118.112 8.07536 117.612 8.07536C116.925 8.07536 116.344 8.27883 115.87 8.68578C115.403 9.09273 115.123 9.67771 115.03 10.4407Z" fill="black"/>
<path d="M126.207 18.4016V5.40477H129.705V6.62561C130.12 6.11692 130.62 5.73541 131.205 5.48107C131.799 5.22673 132.473 5.09956 133.227 5.09956C134.643 5.09956 135.749 5.54042 136.546 6.42213C137.343 7.29538 137.742 8.51622 137.742 10.0847V18.4016H134.245V11.5217C134.245 10.4365 134.075 9.65652 133.736 9.18175C133.397 8.6985 132.841 8.45687 132.07 8.45687C131.256 8.45687 130.658 8.70273 130.277 9.19446C129.895 9.67771 129.705 10.4365 129.705 11.4708V18.4016H126.207Z" fill="black"/>
<path d="M144.594 18.7069C143.509 18.7069 142.699 18.4186 142.165 17.8421C141.64 17.2571 141.377 16.3839 141.377 15.2224V8.4823H139.545V5.40477H141.377V1.69137L144.848 0.03815V5.40477H147.71V8.4823H144.848V14.701C144.848 15.0316 144.921 15.2817 145.065 15.4513C145.217 15.6124 145.45 15.6929 145.764 15.6929C146.4 15.6929 147.099 15.5106 147.862 15.1461L147.468 18.1219C147.07 18.3084 146.633 18.4525 146.158 18.5542C145.684 18.656 145.162 18.7069 144.594 18.7069Z" fill="black"/>
<path d="M149.12 18.4016L156.064 0.597703H159.548L166.505 18.4016H162.524L161.163 14.8281H154.436L153.101 18.4016H149.12ZM155.657 11.4581H159.93L158.315 7.29961C158.264 7.17244 158.205 7.02832 158.137 6.86723C158.069 6.69767 158.005 6.52811 157.946 6.35855C157.887 6.18899 157.836 6.03638 157.793 5.90073C157.751 6.03638 157.7 6.18899 157.641 6.35855C157.582 6.52811 157.518 6.69767 157.45 6.86723C157.382 7.02832 157.323 7.17244 157.272 7.29961L155.657 11.4581Z" fill="black"/>
<path d="M168.543 18.4016V0.597703H172.205V18.4016H168.543Z" fill="black"/>
<path d="M41.1532 33.1484C40.8649 33.1484 40.6072 33.0958 40.38 32.9907C40.1561 32.8822 39.9374 32.7126 39.7238 32.482V33.0263H39.0116V26.0217L39.7238 25.6809V28.382C39.8899 28.1684 40.0951 28.0022 40.3393 27.8835C40.5834 27.7648 40.8412 27.7055 41.1125 27.7055C41.5431 27.7055 41.9145 27.8157 42.2265 28.0361C42.5385 28.2565 42.7792 28.5702 42.9488 28.9772C43.1218 29.3841 43.2082 29.8657 43.2082 30.4218C43.2082 31.2866 43.0285 31.9581 42.669 32.4362C42.3096 32.911 41.8043 33.1484 41.1532 33.1484ZM41.0616 32.4769C41.5126 32.4769 41.8602 32.2989 42.1044 31.9428C42.3486 31.5833 42.4706 31.0764 42.4706 30.4218C42.4706 29.7538 42.3486 29.2451 42.1044 28.8958C41.8636 28.5465 41.5109 28.3718 41.0463 28.3718C40.7954 28.3718 40.5444 28.4481 40.2935 28.6008C40.0459 28.7534 39.856 28.9484 39.7238 29.1857V31.6529C39.8696 31.9038 40.0612 32.1039 40.2986 32.2531C40.536 32.4023 40.7903 32.4769 41.0616 32.4769Z" fill="black"/>
<path d="M45.0629 35L45.8463 32.8991L43.9438 27.8276H44.656L46.0193 31.5562C46.0532 31.6444 46.082 31.7275 46.1058 31.8055C46.1329 31.8835 46.16 31.9682 46.1871 32.0598C46.2143 31.9682 46.2414 31.8835 46.2685 31.8055C46.2957 31.7275 46.3245 31.6444 46.355 31.5562L47.7335 27.8276H48.461L45.7802 35H45.0629Z" fill="black"/>
<path d="M54.5339 33.1484C54.0083 33.1484 53.5606 33.045 53.191 32.8381C52.8248 32.6278 52.528 32.3464 52.3008 31.9937C52.077 31.641 51.9108 31.2459 51.8023 30.8084C51.6972 30.3676 51.6446 29.9199 51.6446 29.4655C51.6446 29.0077 51.6989 28.5618 51.8074 28.1277C51.9193 27.6902 52.0905 27.2951 52.3212 26.9424C52.5551 26.5864 52.8536 26.3049 53.2164 26.098C53.5827 25.8878 54.0202 25.7826 54.5288 25.7826C54.9527 25.7826 55.3088 25.8437 55.5971 25.9658C55.8887 26.0845 56.1244 26.2388 56.3041 26.4287C56.4873 26.6152 56.6331 26.8119 56.7416 27.0187L56.1058 27.3545C56.0006 27.1883 55.8802 27.0374 55.7446 26.9017C55.6123 26.7661 55.4479 26.6576 55.2512 26.5762C55.0579 26.4948 54.8171 26.4541 54.5288 26.4541C54.1422 26.4541 53.8116 26.5423 53.5369 26.7186C53.2656 26.895 53.0452 27.129 52.8756 27.4206C52.7061 27.7123 52.5823 28.0361 52.5043 28.3922C52.4263 28.7483 52.3873 29.106 52.3873 29.4655C52.3873 29.8419 52.428 30.2099 52.5094 30.5694C52.5908 30.9254 52.7179 31.2476 52.8909 31.5359C53.0638 31.8207 53.286 32.0479 53.5573 32.2175C53.8286 32.3871 54.1541 32.4718 54.5339 32.4718C54.9544 32.4718 55.2919 32.3786 55.5462 32.1921C55.8039 32.0055 56.0091 31.7783 56.1617 31.5104L56.8128 31.7597C56.6975 32.0072 56.5381 32.2361 56.3347 32.4464C56.1346 32.6567 55.8853 32.8262 55.5869 32.9551C55.2885 33.084 54.9375 33.1484 54.5339 33.1484Z" fill="black"/>
<path d="M60.8901 33.1484C60.3645 33.1484 59.9151 33.0467 59.5421 32.8432C59.169 32.6363 58.8655 32.3582 58.6315 32.0089C58.3975 31.6562 58.2246 31.2612 58.1127 30.8237C58.0042 30.3828 57.9499 29.9301 57.9499 29.4655C57.9499 28.9975 58.0076 28.5448 58.1229 28.1073C58.2415 27.6665 58.4196 27.2714 58.657 26.9221C58.8977 26.5728 59.203 26.2964 59.5726 26.0929C59.9422 25.8861 60.3814 25.7826 60.8901 25.7826C61.297 25.7826 61.6396 25.8386 61.9176 25.9505C62.1957 26.0624 62.4263 26.2082 62.6094 26.388C62.796 26.5643 62.952 26.7491 63.0774 26.9424L62.4416 27.3189C62.2822 27.0883 62.0838 26.8882 61.8464 26.7186C61.609 26.5457 61.2903 26.4592 60.8901 26.4592C60.4798 26.4592 60.1338 26.5491 59.8524 26.7288C59.5709 26.9085 59.3454 27.1476 59.1758 27.446C59.0063 27.7411 58.8825 28.0649 58.8045 28.4176C58.7299 28.7703 58.6926 29.1196 58.6926 29.4655C58.6926 29.8521 58.735 30.2252 58.8197 30.5846C58.9045 30.9441 59.0351 31.2646 59.2114 31.546C59.3912 31.8275 59.6184 32.0513 59.8931 32.2175C60.1712 32.3803 60.5035 32.4617 60.8901 32.4617C61.2326 32.4617 61.5293 32.3854 61.7803 32.2328C62.0346 32.0802 62.2313 31.8614 62.3704 31.5766C62.5094 31.2883 62.5789 30.9424 62.5789 30.5388V30.3099H61.2207V29.6537H63.3267V30.3354C63.3267 30.9661 63.2199 31.4901 63.0062 31.9072C62.7926 32.3209 62.5009 32.6312 62.1313 32.8381C61.765 33.045 61.3513 33.1484 60.8901 33.1484Z" fill="black"/>
<path d="M66.9717 33.1484C66.575 33.1484 66.2155 33.0806 65.8933 32.9449C65.5712 32.8059 65.2965 32.6194 65.0692 32.3854C64.8454 32.148 64.6793 31.8835 64.5707 31.5918L65.2575 31.3476C65.4101 31.6834 65.6373 31.9547 65.9391 32.1615C66.2409 32.3684 66.5919 32.4718 66.9921 32.4718C67.4431 32.4718 67.8043 32.3599 68.0756 32.1361C68.3503 31.9123 68.4876 31.5867 68.4876 31.1594C68.4876 30.8712 68.4096 30.6253 68.2536 30.4218C68.0976 30.215 67.8941 30.042 67.6432 29.903C67.3922 29.7606 67.1243 29.6368 66.8395 29.5316C66.5953 29.4401 66.3511 29.3383 66.107 29.2264C65.8662 29.1111 65.6458 28.9772 65.4457 28.8246C65.249 28.6686 65.0913 28.4804 64.9726 28.2599C64.8539 28.0395 64.7946 27.7784 64.7946 27.4766C64.7946 27.1646 64.876 26.8814 65.0387 26.6271C65.2049 26.3693 65.444 26.1642 65.756 26.0116C66.068 25.8589 66.4461 25.7826 66.8903 25.7826C67.2396 25.7826 67.5516 25.8352 67.8263 25.9403C68.101 26.0455 68.3299 26.1913 68.513 26.3778C68.6962 26.5643 68.825 26.778 68.8996 27.0187L68.2333 27.2426C68.1383 27.0086 67.9721 26.8187 67.7348 26.6728C67.5008 26.5236 67.2023 26.449 66.8395 26.449C66.4325 26.449 66.1121 26.5423 65.8781 26.7288C65.6475 26.9119 65.5322 27.1629 65.5322 27.4816C65.5322 27.7292 65.6085 27.9361 65.7611 28.1022C65.9137 28.2684 66.1121 28.4108 66.3562 28.5295C66.6038 28.6482 66.8649 28.7618 67.1396 28.8704C67.3804 28.9619 67.6228 29.0687 67.867 29.1908C68.1146 29.3129 68.3401 29.4621 68.5436 29.6385C68.747 29.8114 68.9115 30.0217 69.037 30.2692C69.1625 30.5134 69.2252 30.8067 69.2252 31.1493C69.2252 31.5766 69.1269 31.9394 68.9302 32.2378C68.7369 32.5329 68.4706 32.7584 68.1315 32.9144C67.7924 33.0704 67.4058 33.1484 66.9717 33.1484Z" fill="black"/>
<path d="M24.7699 10.2646C24.7752 10.255 24.7696 10.2491 24.7531 10.2469C24.7404 10.245 24.739 10.24 24.7489 10.232L24.7997 10.1887C24.8143 10.1762 24.8127 10.1665 24.795 10.1593C24.7637 10.1469 24.745 10.123 24.7392 10.0876C24.737 10.0746 24.7399 10.0628 24.748 10.0522C24.7523 10.0469 24.7561 10.0413 24.7592 10.0354C24.7725 10.0094 24.7665 10.0036 24.741 10.0182L24.076 10.3964C24.071 10.3995 24.0693 10.3981 24.0709 10.3922C24.074 10.3826 24.0811 10.3751 24.0923 10.3698C24.1652 10.336 24.1853 10.2876 24.1524 10.2245C24.1446 10.2096 24.1489 10.2002 24.1654 10.1961L24.2259 10.1812C24.2452 10.1762 24.2595 10.1651 24.2688 10.1477C24.3079 10.0741 24.306 9.9999 24.2632 9.92507C24.2601 9.91955 24.2588 9.91325 24.2593 9.90695C24.2598 9.90066 24.2621 9.89465 24.266 9.88968C24.3163 9.82479 24.3177 9.76161 24.2702 9.70013C24.2599 9.68678 24.255 9.67157 24.2553 9.65449C24.2604 9.29636 24.3396 8.93915 24.3335 8.59359C24.3181 7.69197 24.3368 7.03718 24.3414 6.33628C24.3447 5.81747 24.4253 5.31264 24.34 4.77381C24.2921 4.47156 24.3996 4.25128 24.314 3.92062C24.3028 3.87715 24.3122 3.82794 24.3424 3.77299C24.3501 3.75933 24.3535 3.74458 24.3526 3.72875C24.3421 3.49682 24.323 3.26598 24.2953 3.03623C24.2851 2.95193 24.2446 2.89931 24.2092 2.82433C24.2026 2.81098 24.1921 2.80508 24.1775 2.80663C24.0931 2.81688 24.0178 2.84637 23.9516 2.89512C23.942 2.90226 23.9313 2.90459 23.9195 2.9021C23.8943 2.89745 23.8718 2.90443 23.852 2.92306C23.8343 2.93952 23.8256 2.93563 23.8259 2.91142C23.8262 2.87975 23.8152 2.85864 23.7928 2.84808C23.7751 2.83939 23.7542 2.84141 23.7299 2.85413C23.6973 2.87121 23.6686 2.89294 23.6438 2.91933C23.6323 2.93175 23.6182 2.93734 23.6014 2.9361C23.5017 2.92865 23.4156 2.95954 23.3429 3.02878C23.329 3.04213 23.3158 3.04151 23.3034 3.02691L23.261 2.97801C23.2501 2.96559 23.2504 2.95364 23.2619 2.94215L23.2847 2.9198C23.2959 2.90862 23.2965 2.89667 23.2866 2.88394L23.2666 2.85786C23.9002 2.4589 24.5496 2.0899 25.2146 1.75086C25.5528 1.57885 25.8392 1.46165 26.0739 1.39924C28.9157 0.64339 31.7207 3.3748 30.277 6.2287C29.9877 6.8006 29.4708 7.27469 28.9446 7.61792C27.5639 8.51737 26.1723 9.39959 24.7699 10.2646Z" fill="#58CCFF"/>
<path d="M24.77 10.2646L20.8482 12.7128C20.8476 12.7085 20.8472 12.7045 20.8468 12.7007C20.8462 12.6955 20.8434 12.6922 20.8385 12.691C20.7844 12.6764 20.7413 12.6916 20.709 12.7366C20.7061 12.7408 20.7019 12.7439 20.697 12.7455C20.6921 12.747 20.6868 12.7468 20.682 12.745C20.6772 12.7432 20.6732 12.7398 20.6706 12.7354C20.668 12.731 20.6669 12.7258 20.6675 12.7208C20.6787 12.6309 20.8017 12.6248 20.8669 12.5997C20.8744 12.5968 20.8812 12.5922 20.8867 12.5862C20.8922 12.5802 20.8962 12.573 20.8985 12.5652C20.9346 12.4413 21.0145 12.3648 21.1384 12.3356C21.1508 12.3325 21.1621 12.3271 21.1724 12.3193L21.4956 12.0692C21.4974 12.0677 21.4988 12.0657 21.4995 12.0634C21.5002 12.0611 21.5002 12.0586 21.4995 12.0563C21.4988 12.054 21.4974 12.052 21.4956 12.0505C21.4937 12.049 21.4915 12.048 21.4891 12.0478C21.4829 12.0475 21.4768 12.0475 21.4709 12.0478C21.4684 12.048 21.4659 12.0476 21.4637 12.0464C21.4615 12.0453 21.4596 12.0436 21.4583 12.0414C21.457 12.0392 21.4564 12.0367 21.4564 12.0341C21.4563 12.0316 21.457 12.0291 21.4583 12.0268C21.5009 11.9573 21.5564 11.9016 21.6251 11.8597C21.6879 11.8215 21.7247 11.7768 21.7857 11.7395C21.7975 11.7324 21.8058 11.7223 21.8104 11.7092L21.9315 11.3683C21.9365 11.3537 21.938 11.3388 21.9362 11.3236C21.9226 11.2254 21.9441 11.1476 21.9264 11.0493C21.8905 10.8453 21.9185 10.6218 21.8947 10.4173C21.8821 10.3074 21.9636 10.2036 21.9585 10.0839C21.9511 9.91949 21.9091 9.76674 21.9101 9.61165C21.9126 9.16022 21.9363 8.70957 21.9813 8.25969C22.0004 8.072 22.061 8.01239 21.9734 7.80887C21.8657 7.55801 21.836 7.29768 21.8845 7.02787C21.9101 6.88303 21.9087 6.7517 21.9259 6.61152C21.9281 6.59631 21.9262 6.58156 21.9203 6.56728C21.863 6.42989 21.9245 6.30555 21.9282 6.18772C21.9323 6.05142 21.9529 5.86312 21.9902 5.62281C22.0197 5.43311 22.0201 5.17464 21.9916 4.8474C21.9813 4.72631 21.9282 4.61128 21.9129 4.48042C21.9108 4.46327 21.9147 4.4461 21.924 4.43198C21.9591 4.37765 21.9805 4.31648 21.9883 4.24849C21.9902 4.23166 21.9874 4.21465 21.9802 4.1993C21.9731 4.18396 21.9619 4.17088 21.9478 4.1615C21.9337 4.15212 21.9173 4.1468 21.9003 4.14613C21.8834 4.14545 21.8667 4.14945 21.8519 4.15768C21.7649 4.20642 21.6913 4.27395 21.6311 4.36026C21.6122 4.38758 21.5935 4.4087 21.5752 4.4236C21.5587 4.43667 21.5377 4.44286 21.5167 4.44086C21.4957 4.43886 21.4762 4.42883 21.4624 4.41287C21.4486 4.39691 21.4415 4.37623 21.4426 4.35516C21.4436 4.33408 21.4528 4.31422 21.4681 4.29972L21.7489 4.04218C21.752 4.03969 21.7519 4.03737 21.7485 4.03519L21.734 4.02634C21.725 4.02107 21.7241 4.0147 21.7312 4.00725L21.7513 3.98769C21.7535 3.98528 21.7547 3.98212 21.7547 3.97884C21.7547 3.97556 21.7535 3.9724 21.7513 3.96999L21.7373 3.95649C21.7258 3.94469 21.7269 3.93429 21.7406 3.92528L21.8779 3.83354C21.89 3.82547 21.8927 3.81491 21.8859 3.80187C21.8638 3.7612 21.8275 3.73853 21.7769 3.73388L23.2667 2.85787L23.2867 2.88395C23.2967 2.89668 23.296 2.90863 23.2849 2.91981L23.262 2.94216C23.2506 2.95365 23.2502 2.9656 23.2611 2.97802L23.3035 3.02692C23.3159 3.04151 23.3291 3.04214 23.3431 3.02878C23.4157 2.95955 23.5019 2.92866 23.6015 2.93611C23.6183 2.93735 23.6324 2.93176 23.6439 2.91934C23.6688 2.89295 23.6975 2.87122 23.7301 2.85414C23.7543 2.84141 23.7753 2.83939 23.793 2.84809C23.8153 2.85864 23.8263 2.87976 23.826 2.91142C23.8257 2.93564 23.8344 2.93952 23.8521 2.92307C23.872 2.90444 23.8945 2.89745 23.9196 2.90211C23.9314 2.90459 23.9421 2.90227 23.9518 2.89512C24.0179 2.84638 24.0932 2.81688 24.1776 2.80664C24.1922 2.80509 24.2028 2.81099 24.2093 2.82434C24.2447 2.89932 24.2852 2.95194 24.2955 3.03624C24.3231 3.26599 24.3422 3.49683 24.3527 3.72875C24.3537 3.74459 24.3503 3.75933 24.3425 3.773C24.3124 3.82795 24.3029 3.87716 24.3141 3.92063C24.3998 4.25128 24.2922 4.47157 24.3402 4.77382C24.4254 5.31265 24.3448 5.81748 24.3416 6.33629C24.3369 7.03719 24.3183 7.69198 24.3336 8.5936C24.3397 8.93916 24.2605 9.29636 24.2554 9.6545C24.2551 9.67157 24.2601 9.68679 24.2703 9.70014C24.3178 9.76161 24.3164 9.8248 24.2661 9.88968C24.2622 9.89466 24.2599 9.90067 24.2594 9.90696C24.2589 9.91325 24.2603 9.91956 24.2633 9.92508C24.3062 9.9999 24.308 10.0741 24.2689 10.1477C24.2596 10.1651 24.2453 10.1763 24.2261 10.1812L24.1655 10.1961C24.1491 10.2002 24.1447 10.2096 24.1525 10.2245C24.1854 10.2876 24.1654 10.336 24.0924 10.3698C24.0812 10.3751 24.0741 10.3826 24.071 10.3922C24.0694 10.3981 24.0711 10.3995 24.0761 10.3964L24.7411 10.0182C24.7666 10.0036 24.7727 10.0094 24.7593 10.0355C24.7562 10.0414 24.7525 10.0469 24.7481 10.0522C24.7401 10.0628 24.7371 10.0746 24.7393 10.0876C24.7452 10.123 24.7638 10.1469 24.7952 10.1593C24.8129 10.1665 24.8144 10.1763 24.7998 10.1887L24.7491 10.232C24.7391 10.2401 24.7405 10.245 24.7533 10.2469C24.7697 10.2491 24.7753 10.255 24.77 10.2646Z" fill="#7FBBF1"/>
<path d="M21.7768 3.73386C21.8274 3.73852 21.8637 3.76119 21.8858 3.80186C21.8926 3.8149 21.89 3.82545 21.8779 3.83353L21.7405 3.92527C21.7268 3.93428 21.7257 3.94468 21.7372 3.95648L21.7512 3.96998C21.7534 3.97239 21.7546 3.97555 21.7546 3.97883C21.7546 3.98211 21.7534 3.98527 21.7512 3.98768L21.7312 4.00724C21.724 4.01469 21.7249 4.02105 21.734 4.02633L21.7484 4.03518C21.7518 4.03735 21.752 4.03968 21.7489 4.04217L21.468 4.29971C21.4527 4.31421 21.4436 4.33407 21.4425 4.35514C21.4414 4.37622 21.4486 4.39689 21.4624 4.41286C21.4762 4.42882 21.4956 4.43885 21.5166 4.44085C21.5376 4.44284 21.5586 4.43666 21.5751 4.42359C21.5935 4.40868 21.6121 4.38757 21.631 4.36025C21.6913 4.27394 21.7648 4.20641 21.8518 4.15766C21.8666 4.14944 21.8833 4.14544 21.9003 4.14612C21.9172 4.14679 21.9336 4.15211 21.9477 4.16149C21.9618 4.17087 21.973 4.18395 21.9802 4.19929C21.9873 4.21464 21.9901 4.23165 21.9882 4.24848C21.9805 4.31647 21.959 4.37764 21.924 4.43197C21.9146 4.44609 21.9107 4.46326 21.9128 4.4804C21.9282 4.61127 21.9812 4.7263 21.9915 4.84739C22.0201 5.17463 22.0196 5.4331 21.9901 5.6228C21.9528 5.86311 21.9322 6.05141 21.9282 6.18771C21.9244 6.30554 21.863 6.42988 21.9202 6.56727C21.9261 6.58155 21.928 6.5963 21.9258 6.61151C21.9086 6.75169 21.91 6.88302 21.8844 7.02786C21.8359 7.29766 21.8656 7.558 21.9733 7.80886C22.0609 8.01238 22.0003 8.07199 21.9812 8.25967C21.9362 8.70955 21.9125 9.16021 21.91 9.61164C21.9091 9.76672 21.951 9.91948 21.9584 10.0839C21.9635 10.2036 21.882 10.3074 21.8946 10.4173C21.9184 10.6218 21.8904 10.8453 21.9263 11.0493C21.944 11.1476 21.9226 11.2253 21.9361 11.3236C21.9379 11.3388 21.9364 11.3537 21.9314 11.3683L21.8103 11.7092C21.8057 11.7223 21.7974 11.7323 21.7856 11.7395C21.7246 11.7767 21.6878 11.8215 21.625 11.8596C21.5564 11.9016 21.5008 11.9573 21.4582 12.0268C21.457 12.029 21.4563 12.0316 21.4563 12.0341C21.4563 12.0367 21.457 12.0392 21.4583 12.0414C21.4596 12.0435 21.4614 12.0453 21.4636 12.0464C21.4659 12.0475 21.4683 12.048 21.4708 12.0478C21.4767 12.0475 21.4828 12.0475 21.489 12.0478C21.4914 12.048 21.4936 12.049 21.4955 12.0505C21.4974 12.052 21.4987 12.054 21.4994 12.0563C21.5001 12.0586 21.5001 12.0611 21.4994 12.0634C21.4987 12.0657 21.4974 12.0677 21.4955 12.0692L21.1723 12.3193C21.1621 12.3271 21.1507 12.3325 21.1383 12.3356C21.0144 12.3648 20.9345 12.4413 20.8985 12.5652C20.8962 12.573 20.8921 12.5802 20.8866 12.5862C20.8811 12.5921 20.8743 12.5968 20.8668 12.5997C20.8016 12.6248 20.6786 12.6309 20.6675 12.7207C20.6668 12.7258 20.6679 12.731 20.6705 12.7354C20.6731 12.7398 20.6772 12.7432 20.682 12.745C20.6867 12.7468 20.692 12.747 20.6969 12.7455C20.7018 12.7439 20.706 12.7408 20.7089 12.7366C20.7412 12.6916 20.7844 12.6763 20.8384 12.6909C20.8434 12.6922 20.8461 12.6954 20.8468 12.7007C20.8471 12.7044 20.8475 12.7085 20.8482 12.7128L19.7277 13.4179L19.6816 13.2689C19.6766 13.2537 19.6816 13.2433 19.6965 13.2377L19.7794 13.2074C19.7911 13.2031 19.796 13.1948 19.7938 13.1827C19.7863 13.1427 19.7564 13.1199 19.7039 13.1143C19.7784 13.0773 19.8307 13.0183 19.8609 12.9373C19.8651 12.9267 19.8722 12.9175 19.8813 12.9108L20.0811 12.7678C20.0929 12.7591 20.1018 12.7481 20.1077 12.7347L20.1687 12.5987C20.174 12.5869 20.1764 12.5745 20.1761 12.5615C20.1709 12.3417 20.1842 12.1773 20.2162 12.0683C20.2604 11.9165 20.192 11.7898 20.2395 11.6803C20.246 11.6651 20.2489 11.6494 20.2483 11.6333L20.1719 9.40114C20.1718 9.39748 20.173 9.39387 20.1753 9.39096C20.1776 9.38805 20.1808 9.38605 20.1844 9.38531C20.188 9.38458 20.1916 9.38516 20.1947 9.38695C20.1978 9.38875 20.2002 9.39163 20.2013 9.39508L20.2264 9.46261C20.237 9.49055 20.2409 9.48962 20.2381 9.45982C20.2078 9.1408 20.2339 8.77196 20.2283 8.50697C20.2111 7.74925 20.2437 6.98967 20.2455 6.23661C20.2458 6.12422 20.2364 6.01679 20.2171 5.91434C20.1631 5.63025 20.0453 5.40857 20.124 5.15196C20.1283 5.13706 20.1246 5.13473 20.1128 5.14498L20.001 5.23905C19.9833 5.25395 19.9739 5.24976 19.9726 5.22648C19.9701 5.18425 19.9798 5.14513 20.0015 5.10912C20.0093 5.09639 20.0203 5.08769 20.0346 5.08304C20.1237 5.05385 20.203 5.0079 20.2725 4.94519C20.2809 4.93773 20.2851 4.9396 20.2851 4.95077V4.96754C20.2851 4.9694 20.286 4.97018 20.2879 4.96987C20.3984 4.95434 20.4712 4.89504 20.5063 4.79197C20.5138 4.7693 20.5057 4.75642 20.4821 4.75331C20.3793 4.73965 20.2851 4.76387 20.1994 4.82596C20.1895 4.8331 20.1785 4.83761 20.1664 4.83947C20.0783 4.85251 20.0238 4.95962 19.9372 4.99315C19.9177 5.00061 19.9124 4.99486 19.9214 4.97592C19.9437 4.9278 19.936 4.88495 19.8981 4.84739L21.7768 3.73386Z" fill="#8CB0EE"/>
<path d="M19.7039 13.1143L19.2033 13.4044C19.1912 13.4116 19.1839 13.4082 19.1814 13.3942C19.1362 13.111 19.186 12.8358 19.1702 12.5727C19.1301 11.9034 19.1655 11.2286 19.1474 10.4378C19.1451 10.3288 19.1809 10.2096 19.1804 10.0913C19.18 9.45657 19.1581 8.80969 19.2009 8.17679C19.2214 7.87267 19.1828 7.44561 19.1818 7.26724C19.1806 7.01669 19.1798 6.75015 19.1795 6.46761C19.1795 6.46016 19.177 6.45292 19.1725 6.44709C19.1679 6.44125 19.1615 6.43716 19.1544 6.43548C19.1382 6.43144 19.1241 6.4316 19.112 6.43595C19.0844 6.44557 19.0716 6.43579 19.0738 6.40661C19.0896 6.21007 19.1525 5.94322 19.1069 5.75414C19.1034 5.73924 19.1073 5.72651 19.1185 5.71595C19.184 5.65417 19.2031 5.57639 19.1758 5.48263C19.1724 5.47114 19.1652 5.46788 19.1544 5.47285C19.0771 5.50855 18.9994 5.4966 18.9215 5.43699L19.8981 4.8474C19.936 4.88496 19.9438 4.92781 19.9214 4.97593C19.9124 4.99487 19.9177 5.00062 19.9372 4.99316C20.0239 4.95963 20.0783 4.85252 20.1664 4.83948C20.1785 4.83762 20.1895 4.83311 20.1994 4.82597C20.2851 4.76388 20.3793 4.73966 20.4821 4.75332C20.5057 4.75643 20.5138 4.76931 20.5063 4.79197C20.4712 4.89505 20.3984 4.95435 20.2879 4.96988C20.2861 4.97019 20.2851 4.96941 20.2851 4.96755V4.95078C20.2851 4.93961 20.2809 4.93774 20.2725 4.9452C20.203 5.00791 20.1237 5.05386 20.0346 5.08305C20.0203 5.0877 20.0093 5.0964 20.0015 5.10913C19.9798 5.14514 19.9701 5.18426 19.9726 5.22649C19.9739 5.24977 19.9833 5.25396 20.001 5.23906L20.1128 5.14499C20.1246 5.13474 20.1283 5.13707 20.124 5.15197C20.0453 5.40858 20.1631 5.63026 20.2171 5.91435C20.2364 6.0168 20.2458 6.12423 20.2455 6.23662C20.2437 6.98968 20.2111 7.74926 20.2283 8.50698C20.2339 8.77197 20.2078 9.14081 20.2381 9.45983C20.2409 9.48963 20.237 9.49056 20.2264 9.46262L20.2013 9.39509C20.2002 9.39164 20.1978 9.38876 20.1947 9.38696C20.1916 9.38517 20.188 9.38459 20.1844 9.38532C20.1808 9.38606 20.1776 9.38806 20.1753 9.39097C20.173 9.39388 20.1718 9.39749 20.172 9.40115L20.2483 11.6333C20.249 11.6495 20.246 11.6651 20.2395 11.6804C20.192 11.7898 20.2604 11.9165 20.2162 12.0683C20.1842 12.1773 20.1709 12.3417 20.1761 12.5615C20.1765 12.5745 20.174 12.5869 20.1687 12.5987L20.1077 12.7347C20.1018 12.7481 20.0929 12.7591 20.0811 12.7678L19.8813 12.9108C19.8722 12.9175 19.8651 12.9267 19.8609 12.9373C19.8307 13.0183 19.7784 13.0773 19.7039 13.1143Z" fill="#98A4EE"/>
<path d="M18.9215 5.43698C18.9994 5.49659 19.077 5.50855 19.1543 5.47284C19.1652 5.46787 19.1723 5.47113 19.1757 5.48262C19.2031 5.57639 19.184 5.65416 19.1184 5.71594C19.1073 5.7265 19.1034 5.73923 19.1068 5.75413C19.1524 5.94321 19.0896 6.21007 19.0737 6.4066C19.0716 6.43578 19.0843 6.44556 19.1119 6.43594C19.124 6.43159 19.1382 6.43144 19.1543 6.43547C19.1615 6.43715 19.1679 6.44124 19.1724 6.44708C19.177 6.45291 19.1795 6.46015 19.1795 6.46761C19.1798 6.75014 19.1805 7.01668 19.1818 7.26724C19.1827 7.44561 19.2214 7.87267 19.2009 8.17678C19.158 8.80968 19.1799 9.45656 19.1804 10.0913C19.1809 10.2096 19.145 10.3288 19.1473 10.4378C19.1655 11.2286 19.1301 11.9034 19.1701 12.5727C19.186 12.8358 19.1361 13.111 19.1813 13.3942C19.1838 13.4081 19.1911 13.4116 19.2032 13.4044L19.7039 13.1143C19.7563 13.1199 19.7863 13.1427 19.7937 13.1827C19.7959 13.1948 19.7911 13.2031 19.7793 13.2074L19.6964 13.2377C19.6815 13.2433 19.6765 13.2537 19.6815 13.2689L19.7276 13.4179L17.4214 14.8919C17.4692 14.7935 17.4656 14.6912 17.4107 14.585C17.4051 14.5738 17.3961 14.5693 17.3837 14.5715L17.352 14.5771C17.3374 14.5796 17.3282 14.5737 17.3245 14.5594L17.2849 14.401C17.2806 14.3843 17.2699 14.3759 17.2528 14.3759H17.2225C17.2017 14.3759 17.1902 14.3655 17.1881 14.3447C17.1576 14.0463 17.143 13.7473 17.1443 13.4477C17.1461 12.9131 17.1205 12.3794 17.1103 11.8447C17.1075 11.706 17.1364 11.5201 17.1159 11.352C17.0828 11.0824 17.1122 10.85 17.135 10.5924C17.1356 10.5828 17.1344 10.5752 17.1312 10.5696C17.1269 10.5615 17.1196 10.557 17.1094 10.5561C17.0954 10.5549 17.0879 10.5473 17.087 10.5333C17.0768 10.3967 17.0893 10.2624 17.1247 10.1304C17.1293 10.1129 17.1281 10.0945 17.1215 10.0778C17.0879 9.99523 17.0907 9.91358 17.1298 9.83286C17.1367 9.81911 17.1382 9.80332 17.134 9.78861C17.1089 9.69578 17.0991 9.60248 17.1047 9.50872C17.1191 9.26375 17.114 9.10914 17.1257 8.90888C17.1331 8.77894 17.1094 8.64855 17.1117 8.51535C17.1173 8.21124 17.1019 7.90899 17.1103 7.60441C17.1109 7.58579 17.1019 7.57647 17.0833 7.57647H17.0511C17.0366 7.57647 17.0302 7.56918 17.032 7.55458C17.0678 7.23852 17.0539 6.92059 16.9906 6.6008L18.9215 5.43698Z" fill="#A296F0"/>
<path d="M16.9907 6.6008C17.054 6.92059 17.0678 7.23852 17.0321 7.55458C17.0302 7.56917 17.0366 7.57647 17.0512 7.57647H17.0833C17.102 7.57647 17.111 7.58579 17.1103 7.60441C17.102 7.90899 17.1173 8.21124 17.1117 8.51535C17.1094 8.64855 17.1332 8.77894 17.1257 8.90888C17.1141 9.10914 17.1192 9.26375 17.1048 9.50872C17.0992 9.60248 17.1089 9.69578 17.1341 9.78861C17.1383 9.80332 17.1368 9.81911 17.1299 9.83286C17.0908 9.91358 17.088 9.99523 17.1215 10.0778C17.1282 10.0945 17.1293 10.1129 17.1248 10.1304C17.0894 10.2624 17.0768 10.3967 17.0871 10.5333C17.088 10.5473 17.0954 10.5549 17.1094 10.5561C17.1197 10.557 17.127 10.5615 17.1313 10.5696C17.1344 10.5752 17.1356 10.5828 17.135 10.5924C17.1122 10.85 17.0829 11.0824 17.1159 11.352C17.1364 11.5201 17.1076 11.706 17.1103 11.8447C17.1206 12.3794 17.1462 12.9131 17.1443 13.4477C17.1431 13.7473 17.1577 14.0463 17.1881 14.3447C17.1903 14.3655 17.2018 14.3759 17.2226 14.3759H17.2529C17.2699 14.3759 17.2806 14.3843 17.285 14.401L17.3246 14.5594C17.3283 14.5737 17.3375 14.5796 17.3521 14.5771L17.3837 14.5715C17.3961 14.5693 17.4051 14.5738 17.4107 14.585C17.4657 14.6912 17.4693 14.7935 17.4214 14.8919C16.9893 15.1737 16.6064 15.5281 16.368 15.9882C15.702 17.2717 16.1263 18.6623 17.271 19.4899C17.2338 19.5756 17.2262 19.6658 17.2482 19.7605C17.2506 19.7709 17.2489 19.7821 17.2435 19.7917L17.2053 19.862C17.1967 19.8782 17.2015 19.8875 17.2198 19.89C17.2813 19.8983 17.312 19.9395 17.312 20.0134C17.312 20.2611 17.314 20.5087 17.3181 20.7562C17.3236 21.1073 17.2934 21.4957 17.2943 21.812C17.2965 22.4549 17.2962 23.0978 17.2934 23.7405C17.2924 23.9603 17.2594 24.2206 17.2594 24.412C17.26 24.9516 17.2451 25.4911 17.2147 26.0304C17.2091 26.131 17.2361 26.2092 17.2487 26.308C17.2626 26.4216 17.3306 26.5804 17.2808 26.7373C17.2771 26.7495 17.28 26.7595 17.2896 26.7676C17.3089 26.7841 17.3188 26.8361 17.3195 26.9236C17.3195 26.9307 17.3167 26.9374 17.3117 26.9424C17.3067 26.9474 17.2999 26.9502 17.2929 26.9502H17.2659C17.2451 26.9502 17.2376 26.9603 17.2435 26.9804L17.2938 27.156C17.2954 27.1616 17.2982 27.1624 17.3022 27.1583L17.3134 27.1467C17.3153 27.1452 17.3163 27.1456 17.3167 27.1481L17.427 27.7349C17.4292 27.7479 17.4267 27.7601 17.4196 27.7712C17.4084 27.7892 17.4058 27.8094 17.4117 27.8318C17.4154 27.8461 17.4236 27.8569 17.4363 27.8644C17.4779 27.8883 17.5095 27.9204 17.5309 27.9608C17.538 27.9741 17.547 27.9861 17.5579 27.9966L17.6794 28.1107C17.6897 28.1204 17.7016 28.1269 17.7153 28.1303C17.7619 28.1424 17.7855 28.1769 17.7861 28.2337C17.7867 28.2694 17.753 28.3186 17.685 28.3813L15.1394 26.8188C15.1556 26.8105 15.1949 26.7998 15.2573 26.7867C15.2809 26.7817 15.2936 26.7662 15.2955 26.7401C15.2961 26.7287 15.3012 26.7259 15.3108 26.7318L15.3225 26.7387C15.3399 26.749 15.349 26.744 15.3499 26.7238C15.3509 26.695 15.3436 26.6802 15.3281 26.6796C15.2963 26.6784 15.2657 26.6667 15.2404 26.6463C15.2152 26.6259 15.1966 26.5978 15.1874 26.566C15.1557 26.4557 15.0874 26.3803 14.9825 26.3396C14.9745 26.3365 14.9679 26.3304 14.9642 26.3226C14.9605 26.3148 14.9599 26.3059 14.9625 26.2977C14.9792 26.2452 14.9733 26.2071 14.9448 26.1831C14.9277 26.1692 14.9213 26.1513 14.9257 26.1296C14.9421 26.0476 14.9339 25.9675 14.901 25.8893C14.8948 25.8744 14.8937 25.859 14.8977 25.8432C14.9098 25.7932 14.8988 25.7472 14.8647 25.7053C14.861 25.701 14.8584 25.6959 14.8572 25.6904L14.8079 25.4692C14.8076 25.4681 14.8075 25.4669 14.8078 25.4658C14.808 25.4646 14.8085 25.4636 14.8093 25.4627C14.81 25.4618 14.8109 25.4611 14.8119 25.4606C14.813 25.4601 14.8141 25.4599 14.8153 25.4599C14.8193 25.4599 14.8234 25.4599 14.8274 25.4599C14.8293 25.4599 14.8312 25.4595 14.8329 25.4587C14.8347 25.458 14.8362 25.4569 14.8375 25.4555C14.8388 25.454 14.8397 25.4524 14.8403 25.4506C14.8409 25.4488 14.8411 25.4469 14.8409 25.445C14.8251 25.2773 14.8633 25.1064 14.8609 24.9574C14.8535 24.4041 14.9038 23.7884 14.9094 23.3027C14.9182 22.5431 14.9443 21.8106 14.9322 21.024C14.9244 20.5194 14.9316 20.0149 14.9536 19.5104C14.9615 19.3297 14.9322 19.1425 14.9466 18.952C14.9643 18.7252 14.9592 18.4663 14.9676 18.2683C14.9862 17.8197 14.9906 17.3709 14.9806 16.922C14.9755 16.6747 15.023 16.3468 14.9853 16.052C14.9834 16.0368 14.9766 16.0242 14.9648 16.0143C14.9462 15.998 14.9313 15.9686 14.9331 15.9416C14.969 15.3781 14.9387 14.8449 14.9229 14.2832C14.9164 14.048 14.8712 13.6731 14.8912 13.3625C14.8999 13.2299 14.8987 13.1062 14.8875 12.9913C14.8605 12.7105 14.8935 12.4371 14.8661 12.2019C14.8586 12.1386 14.8982 12.0678 14.8926 11.9952C14.8746 11.7642 14.8718 11.5333 14.8842 11.3026C14.9275 10.5119 14.8106 9.71689 14.8456 8.92145C14.8507 8.80642 14.9294 8.72213 14.9434 8.63597C14.9859 8.36865 15.0322 8.17072 15.0822 8.04219C15.0856 8.0338 15.0826 8.02992 15.0733 8.03054C15.0618 8.03116 15.0502 8.02806 15.0384 8.02123C15.0281 8.01533 15.0205 8.0071 15.0156 7.99654C15.0028 7.96891 15.0112 7.94671 15.0407 7.92995C15.0456 7.92708 15.0492 7.92243 15.0507 7.91702C15.0522 7.9116 15.0514 7.90587 15.0486 7.90107L15.0361 7.88058C15.0283 7.86723 15.0171 7.8632 15.0025 7.86847C14.9786 7.87717 14.9505 7.87142 14.9182 7.85124L16.9907 6.6008Z" fill="#AC83F4"/>
<path d="M14.9182 7.85124C14.9505 7.87142 14.9786 7.87717 15.0025 7.86847C15.0171 7.8632 15.0283 7.86723 15.036 7.88058L15.0486 7.90107C15.0514 7.90587 15.0521 7.9116 15.0507 7.91702C15.0492 7.92243 15.0456 7.92708 15.0407 7.92995C15.0112 7.94671 15.0028 7.96891 15.0155 7.99654C15.0205 8.0071 15.0281 8.01533 15.0384 8.02123C15.0502 8.02806 15.0618 8.03116 15.0733 8.03054C15.0826 8.02992 15.0855 8.0338 15.0821 8.04219C15.0321 8.17072 14.9859 8.36865 14.9434 8.63597C14.9294 8.72213 14.8507 8.80642 14.8456 8.92145C14.8106 9.71689 14.9275 10.5119 14.8842 11.3026C14.8718 11.5333 14.8746 11.7642 14.8926 11.9952C14.8982 12.0678 14.8586 12.1386 14.866 12.2019C14.8935 12.4371 14.8605 12.7105 14.8875 12.9913C14.8986 13.1062 14.8999 13.2299 14.8912 13.3625C14.8712 13.6731 14.9163 14.048 14.9229 14.2832C14.9387 14.8449 14.969 15.3781 14.9331 15.9416C14.9312 15.9686 14.9461 15.998 14.9648 16.0143C14.9766 16.0242 14.9834 16.0368 14.9853 16.052C15.023 16.3468 14.9755 16.6747 14.9806 16.922C14.9905 17.3709 14.9862 17.8197 14.9676 18.2683C14.9592 18.4663 14.9643 18.7252 14.9466 18.952C14.9322 19.1425 14.9615 19.3297 14.9536 19.5104C14.9316 20.0149 14.9244 20.5194 14.9322 21.024C14.9443 21.8106 14.9182 22.5431 14.9094 23.3027C14.9038 23.7884 14.8535 24.4041 14.8609 24.9574C14.8632 25.1064 14.8251 25.2773 14.8409 25.445C14.8411 25.4469 14.8409 25.4488 14.8403 25.4506C14.8397 25.4524 14.8387 25.454 14.8375 25.4555C14.8362 25.4569 14.8346 25.458 14.8329 25.4587C14.8312 25.4595 14.8293 25.4599 14.8274 25.4599C14.8234 25.4599 14.8193 25.4599 14.8153 25.4599C14.8141 25.4599 14.813 25.4601 14.8119 25.4606C14.8109 25.4611 14.8099 25.4618 14.8092 25.4627C14.8085 25.4636 14.808 25.4646 14.8078 25.4658C14.8075 25.4669 14.8075 25.4681 14.8078 25.4692L14.8572 25.6904C14.8584 25.6959 14.861 25.701 14.8646 25.7053C14.8988 25.7472 14.9098 25.7932 14.8977 25.8432C14.8937 25.859 14.8948 25.8744 14.901 25.8893C14.9339 25.9675 14.9421 26.0476 14.9257 26.1296C14.9213 26.1513 14.9277 26.1692 14.9447 26.1831C14.9733 26.2071 14.9792 26.2452 14.9624 26.2977C14.9598 26.3059 14.9605 26.3148 14.9642 26.3226C14.9679 26.3304 14.9744 26.3365 14.9825 26.3396C15.0874 26.3803 15.1557 26.4557 15.1874 26.566C15.1966 26.5978 15.2151 26.6259 15.2404 26.6463C15.2656 26.6667 15.2963 26.6784 15.328 26.6796C15.3436 26.6802 15.3508 26.695 15.3499 26.7238C15.349 26.744 15.3398 26.749 15.3224 26.7387L15.3108 26.7318C15.3012 26.7259 15.2961 26.7286 15.2954 26.7401C15.2936 26.7662 15.2808 26.7817 15.2572 26.7867C15.1948 26.7997 15.1556 26.8105 15.1394 26.8188C13.4507 25.7933 11.6852 24.7716 9.98769 23.6981C9.90106 23.6431 9.74365 23.5691 9.63281 23.4722C9.71105 23.4685 9.78262 23.4936 9.84751 23.5477C9.85868 23.557 9.87259 23.5624 9.88709 23.563C9.9169 23.5646 9.94422 23.5727 9.96906 23.5873C10.1903 23.7172 10.411 23.8886 10.6686 23.9286C10.672 23.9291 10.6755 23.9287 10.6788 23.9276C10.682 23.9264 10.6849 23.9245 10.6872 23.9219C10.6896 23.9194 10.6912 23.9163 10.692 23.913C10.6928 23.9097 10.6927 23.9063 10.6918 23.903L10.6797 23.8564C10.6748 23.8369 10.6822 23.8283 10.7021 23.8308L10.9294 23.8578C10.932 23.8582 10.9346 23.8578 10.937 23.8567C10.9394 23.8557 10.9415 23.8539 10.9429 23.8517C10.9444 23.8496 10.9452 23.847 10.9453 23.8444C10.9453 23.8417 10.9447 23.8391 10.9433 23.8369C10.8719 23.7074 10.8238 23.5699 10.799 23.4243C10.7968 23.4115 10.7896 23.4072 10.7775 23.4112L10.7375 23.4243C10.7198 23.4302 10.7097 23.4239 10.7072 23.4056L10.6793 23.2156C10.6774 23.2023 10.6814 23.1912 10.6914 23.1825C10.7252 23.1524 10.7372 23.1121 10.7272 23.0615C10.6835 22.8448 10.6746 22.6277 10.7007 22.4104C10.7142 22.2949 10.69 22.1869 10.6984 22.0695C10.7052 21.976 10.706 21.8917 10.7007 21.8166C10.6872 21.6313 10.7333 21.444 10.7291 21.2731C10.7254 21.1356 10.7246 20.9982 10.7268 20.861C10.7296 20.6817 10.6821 20.4344 10.7263 20.2113C10.7294 20.1964 10.7276 20.1823 10.7207 20.1689C10.7142 20.1562 10.7122 20.1422 10.7147 20.127C10.738 19.9867 10.7592 19.8463 10.7785 19.706C10.8246 19.3721 10.7244 19.0484 10.8087 18.7122C10.8441 18.572 10.7622 18.4313 10.7473 18.3289C10.7355 18.2457 10.7269 18.1614 10.7217 18.076C10.7204 18.0605 10.7277 18.0519 10.7435 18.0504C10.7969 18.046 10.8193 18.0164 10.8106 17.9614C10.7755 17.7397 10.7733 17.5314 10.8041 17.3364C10.8264 17.1953 10.7841 17.0961 10.7747 16.9625C10.7679 16.8662 10.7574 16.7731 10.7431 16.683C10.7095 16.4739 10.7417 16.2355 10.7314 16.059C10.7156 15.7824 10.6918 15.5411 10.71 15.244C10.7246 15.0009 10.7131 14.7584 10.6755 14.5165C10.6448 14.3172 10.7277 14.1156 10.7086 13.8985C10.6765 13.5404 10.6932 13.207 10.7393 12.8511C10.7598 12.6928 10.7532 12.5366 10.7193 12.3826C10.7057 12.3202 10.7046 12.2591 10.7161 12.1991C10.749 12.0275 10.758 11.8534 10.7431 11.6771C10.7418 11.66 10.7345 11.646 10.7212 11.6352L10.6183 11.5527C10.6077 11.5447 10.6051 11.5344 10.6103 11.522C10.6417 11.4484 10.6634 11.3719 10.6755 11.2924C10.6891 11.203 10.642 11.0889 10.6718 11.0023C10.7673 10.7266 10.7445 10.6688 10.5731 10.4504L14.9182 7.85124Z" fill="#B95DFB"/>
<path d="M10.5731 10.4504C10.7445 10.6688 10.7673 10.7266 10.6718 11.0023C10.642 11.0889 10.689 11.203 10.6755 11.2924C10.6634 11.3719 10.6417 11.4484 10.6103 11.522C10.6051 11.5344 10.6077 11.5447 10.6183 11.5527L10.7212 11.6352C10.7345 11.646 10.7418 11.66 10.7431 11.6771C10.758 11.8534 10.749 12.0275 10.7161 12.1992C10.7046 12.2591 10.7057 12.3202 10.7193 12.3826C10.7532 12.5366 10.7598 12.6928 10.7393 12.8512C10.6932 13.207 10.6765 13.5404 10.7086 13.8985C10.7277 14.1156 10.6448 14.3172 10.6755 14.5165C10.7131 14.7584 10.7246 15.0009 10.71 15.244C10.6918 15.5411 10.7156 15.7824 10.7314 16.059C10.7417 16.2355 10.7095 16.4739 10.7431 16.683C10.7573 16.7731 10.7679 16.8662 10.7747 16.9625C10.784 17.0961 10.8264 17.1953 10.8041 17.3364C10.7733 17.5314 10.7755 17.7397 10.8106 17.9614C10.8193 18.0164 10.7969 18.046 10.7435 18.0504C10.7277 18.0519 10.7204 18.0605 10.7216 18.076C10.7269 18.1614 10.7355 18.2457 10.7473 18.3289C10.7622 18.4313 10.8441 18.572 10.8087 18.7122C10.7244 19.0484 10.8246 19.3721 10.7785 19.706C10.7592 19.8463 10.7379 19.9867 10.7147 20.127C10.7122 20.1422 10.7142 20.1562 10.7207 20.1689C10.7275 20.1823 10.7294 20.1964 10.7263 20.2113C10.6821 20.4344 10.7296 20.6817 10.7268 20.861C10.7246 20.9982 10.7254 21.1356 10.7291 21.2731C10.7333 21.444 10.6872 21.6313 10.7007 21.8166C10.706 21.8917 10.7052 21.976 10.6984 22.0695C10.69 22.1869 10.7142 22.2949 10.7007 22.4104C10.6746 22.6277 10.6835 22.8448 10.7272 23.0615C10.7372 23.1121 10.7252 23.1524 10.6914 23.1825C10.6814 23.1912 10.6774 23.2023 10.6793 23.2156L10.7072 23.4056C10.7097 23.4239 10.7198 23.4302 10.7375 23.4243L10.7775 23.4112C10.7896 23.4072 10.7968 23.4115 10.7989 23.4243C10.8238 23.5699 10.8719 23.7074 10.9433 23.8369C10.9447 23.8391 10.9453 23.8417 10.9453 23.8444C10.9452 23.847 10.9444 23.8496 10.9429 23.8518C10.9415 23.8539 10.9394 23.8557 10.937 23.8568C10.9346 23.8578 10.932 23.8582 10.9294 23.8578L10.7021 23.8308C10.6822 23.8283 10.6748 23.8369 10.6797 23.8564L10.6918 23.903C10.6927 23.9063 10.6928 23.9097 10.692 23.913C10.6912 23.9163 10.6895 23.9194 10.6872 23.9219C10.6849 23.9245 10.682 23.9264 10.6788 23.9276C10.6755 23.9288 10.672 23.9291 10.6685 23.9286C10.411 23.8886 10.1903 23.7172 9.96905 23.5873C9.94421 23.5727 9.91689 23.5646 9.88708 23.563C9.87258 23.5624 9.85866 23.557 9.8475 23.5477C9.78261 23.4936 9.71104 23.4685 9.6328 23.4722C9.49774 23.366 9.36626 23.2923 9.23834 23.251C8.87508 22.9353 8.63043 22.744 8.50438 22.6773C8.26376 22.55 8.03354 22.4084 7.81372 22.2525C7.87054 22.2159 7.89646 22.1681 7.8915 22.1091C7.89026 22.0942 7.89367 22.0804 7.90174 22.0676C7.92596 22.0291 7.92363 21.9903 7.89476 21.9512C7.89258 21.9481 7.8901 21.9476 7.88731 21.9498C7.88296 21.9532 7.87908 21.9582 7.87566 21.9647C7.8707 21.9743 7.86619 21.9742 7.86216 21.9642L7.7611 21.7235C7.75396 21.7067 7.75628 21.6916 7.76808 21.6783C7.79292 21.6494 7.80223 21.6213 7.79603 21.594C7.75132 21.4034 7.72524 21.2098 7.71779 21.0133C7.71716 20.998 7.72431 20.9903 7.73921 20.99C7.75349 20.9893 7.76001 20.9814 7.75877 20.9662C7.73952 20.7495 7.74356 20.5469 7.77088 20.3585C7.77181 20.3519 7.77569 20.3487 7.78252 20.3487C7.78656 20.3487 7.79059 20.3488 7.79463 20.3491C7.79556 20.3491 7.79913 20.3373 7.80534 20.3138C7.80876 20.3004 7.80565 20.293 7.79603 20.2914C7.77584 20.288 7.76669 20.276 7.76855 20.2555C7.78562 20.072 7.79385 19.8884 7.79323 19.7046C7.79277 19.5989 7.72757 19.4866 7.77973 19.3609C7.80348 19.3036 7.80627 19.2589 7.82443 19.2026C7.82873 19.1885 7.82984 19.1737 7.82769 19.1592C7.79727 18.9736 7.79742 18.7879 7.82816 18.6023C7.83189 18.5802 7.81947 18.5409 7.7909 18.4844C7.785 18.4726 7.78361 18.4602 7.78671 18.4472C7.82024 18.3174 7.80953 18.1912 7.75458 18.0685C7.74973 18.058 7.74842 18.046 7.75085 18.0345C7.79028 17.8517 7.80068 17.668 7.78205 17.4836C7.76855 17.3462 7.79603 17.2051 7.77041 17.0635C7.75644 16.9853 7.75271 16.9161 7.75923 16.8558C7.79509 16.5252 7.74759 16.1801 7.74759 15.8587C7.74713 15.7521 7.78019 15.6361 7.77321 15.5155C7.75504 15.1923 7.78438 14.8854 7.82397 14.564C7.82519 14.5559 7.82337 14.5475 7.81885 14.5403C7.76296 14.4552 7.74945 14.3657 7.77833 14.2716C7.78299 14.2564 7.78376 14.241 7.78066 14.2255C7.70801 13.8572 7.68845 13.4861 7.72198 13.1119C7.72319 13.0976 7.72045 13.0833 7.71406 13.0705C7.69233 13.0289 7.6841 12.9845 7.68938 12.9373C7.68984 12.9328 7.69196 12.9287 7.69531 12.9257C7.69867 12.9226 7.70303 12.921 7.70754 12.921C7.71406 12.9207 7.72074 12.9204 7.72757 12.9201C7.7375 12.9198 7.74356 12.9148 7.74573 12.9052L7.79742 12.6551C7.80115 12.6377 7.79727 12.6223 7.78578 12.609C7.74759 12.564 7.73284 12.5096 7.74154 12.446C7.74266 12.4378 7.74172 12.4295 7.73879 12.4218C7.73586 12.4141 7.73104 12.4072 7.72477 12.4017C7.63691 12.3266 7.55742 12.3289 7.48633 12.4087C7.4767 12.4196 7.46444 12.4246 7.44953 12.4236C7.36943 12.418 7.32146 12.4758 7.27023 12.5028C7.05973 12.613 6.85528 12.7335 6.65689 12.8642C6.5712 12.9201 6.46874 12.9522 6.37513 12.9988C6.36644 13.0031 6.36209 13.0005 6.36209 12.9909V12.968C6.36209 12.9553 6.35666 12.9521 6.34579 12.9583C6.33151 12.9666 6.31785 12.9696 6.30481 12.9671L10.5731 10.4504Z" fill="#B029FD"/>
<path d="M7.8138 22.2525C7.544 22.0979 7.26923 21.9503 6.98949 21.8096C6.69656 21.662 6.44181 21.4678 6.10184 21.2778C5.90391 21.1669 5.64311 20.9709 5.35763 20.8912L4.5729 20.4367C4.44964 20.3109 4.29533 20.2014 4.10998 20.1079C4.14693 20.0759 4.14429 20.054 4.10206 20.0422C4.0825 20.037 4.06698 20.03 4.05549 20.0213C3.99029 19.9725 3.92152 19.9256 3.84918 19.8806C3.8455 19.8784 3.84251 19.8751 3.84053 19.8713C3.83855 19.8674 3.83766 19.8631 3.83794 19.8588C3.83823 19.8545 3.83969 19.8504 3.84216 19.8468C3.84463 19.8433 3.84803 19.8405 3.85197 19.8387L4.22082 19.6678C4.23572 19.6613 4.25109 19.6571 4.26693 19.6552C4.32561 19.6487 4.36116 19.6116 4.37357 19.5439C4.37668 19.5265 4.38661 19.5157 4.40338 19.5113C4.49062 19.4883 4.51903 19.4334 4.48861 19.3465C4.48639 19.34 4.48609 19.333 4.48775 19.3264C4.4894 19.3198 4.49293 19.3138 4.49792 19.3092C4.70563 19.1164 4.54542 18.8784 4.55194 18.6456C4.56529 18.1798 4.56793 17.82 4.55986 17.566C4.55023 17.2509 4.56048 16.9713 4.5906 16.7273C4.62459 16.4572 4.5063 16.1866 4.58082 15.9235C4.60084 15.8531 4.59106 15.8052 4.57989 15.7367C4.55893 15.6077 4.60876 15.5243 4.53192 15.3944C4.5244 15.3818 4.52175 15.3666 4.52446 15.3516C4.55644 15.1802 4.54899 15.0117 4.50211 14.8463C4.46485 14.7149 4.45368 14.5347 4.36053 14.3917C4.35628 14.385 4.35065 14.3792 4.344 14.3747C4.33734 14.3702 4.32981 14.3671 4.32188 14.3656C4.25885 14.3529 4.20918 14.3212 4.17285 14.2706C4.16198 14.2557 4.16354 14.2422 4.17751 14.2301C4.19707 14.2127 4.19893 14.2012 4.1831 14.1957L6.30489 12.9671C6.31793 12.9696 6.33159 12.9666 6.34587 12.9583C6.35674 12.952 6.36217 12.9553 6.36217 12.968V12.9909C6.36217 13.0005 6.36652 13.0031 6.37521 12.9988C6.46882 12.9522 6.57128 12.9201 6.65697 12.8642C6.85536 12.7335 7.05981 12.613 7.27031 12.5028C7.32154 12.4758 7.36951 12.418 7.44962 12.4236C7.46452 12.4245 7.47678 12.4196 7.48641 12.4087C7.55751 12.3289 7.63699 12.3266 7.72485 12.4017C7.73112 12.4072 7.73594 12.414 7.73887 12.4218C7.7418 12.4295 7.74274 12.4378 7.74162 12.446C7.73292 12.5096 7.74767 12.5639 7.78586 12.609C7.79735 12.6223 7.80123 12.6377 7.7975 12.6551L7.74581 12.9052C7.74364 12.9148 7.73758 12.9198 7.72765 12.9201C7.72082 12.9204 7.71414 12.9207 7.70762 12.921C7.70311 12.921 7.69875 12.9226 7.69539 12.9256C7.69204 12.9287 7.68992 12.9328 7.68946 12.9373C7.68418 12.9845 7.69241 13.0289 7.71414 13.0705C7.72053 13.0833 7.72327 13.0976 7.72206 13.1119C7.68853 13.4861 7.70809 13.8572 7.78074 14.2255C7.78384 14.241 7.78307 14.2564 7.77841 14.2716C7.74953 14.3656 7.76304 14.4552 7.81893 14.5403C7.82345 14.5475 7.82527 14.5559 7.82405 14.564C7.78446 14.8854 7.75512 15.1923 7.77329 15.5155C7.78027 15.6361 7.74721 15.7521 7.74767 15.8587C7.74767 16.1801 7.79517 16.5252 7.75931 16.8558C7.75279 16.916 7.75652 16.9853 7.77049 17.0635C7.79611 17.2051 7.76863 17.3462 7.78213 17.4836C7.80076 17.668 7.79036 17.8517 7.75093 18.0345C7.7485 18.046 7.74981 18.058 7.75466 18.0685C7.80961 18.1912 7.82032 18.3174 7.78679 18.4472C7.78369 18.4602 7.78508 18.4726 7.79098 18.4844C7.81955 18.5409 7.83197 18.5802 7.82824 18.6022C7.7975 18.7879 7.79735 18.9736 7.82777 19.1592C7.82992 19.1736 7.82881 19.1884 7.82451 19.2025C7.80635 19.2589 7.80356 19.3036 7.77981 19.3609C7.72765 19.4866 7.79285 19.5989 7.79331 19.7046C7.79393 19.8884 7.7857 20.072 7.76863 20.2555C7.76677 20.276 7.77592 20.288 7.79611 20.2914C7.80573 20.2929 7.80884 20.3004 7.80542 20.3137C7.79921 20.3373 7.79564 20.3491 7.79471 20.3491C7.79067 20.3488 7.78664 20.3487 7.7826 20.3487C7.77577 20.3487 7.77189 20.3519 7.77096 20.3585C7.74364 20.5469 7.7396 20.7495 7.75885 20.9662C7.76009 20.9814 7.75357 20.9893 7.73929 20.99C7.72439 20.9903 7.71725 20.998 7.71787 21.0132C7.72532 21.2098 7.7514 21.4034 7.79611 21.594C7.80232 21.6213 7.793 21.6494 7.76816 21.6783C7.75637 21.6916 7.75404 21.7067 7.76118 21.7235L7.86224 21.9642C7.86627 21.9742 7.87078 21.9743 7.87574 21.9647C7.87916 21.9582 7.88304 21.9532 7.88739 21.9498C7.89018 21.9476 7.89266 21.9481 7.89484 21.9512C7.92371 21.9903 7.92604 22.0291 7.90182 22.0676C7.89375 22.0803 7.89034 22.0942 7.89158 22.1091C7.89654 22.1681 7.87062 22.2159 7.8138 22.2525Z" fill="#A30CFD"/>
<path d="M4.18307 14.1957C4.1989 14.2013 4.19704 14.2127 4.17748 14.2301C4.16351 14.2422 4.16195 14.2557 4.17282 14.2706C4.20915 14.3213 4.25882 14.3529 4.32185 14.3656C4.32978 14.3671 4.33731 14.3702 4.34397 14.3747C4.35062 14.3792 4.35625 14.385 4.3605 14.3917C4.45365 14.5347 4.46482 14.7149 4.50208 14.8463C4.54896 15.0117 4.55641 15.1802 4.52443 15.3516C4.52172 15.3666 4.52437 15.3818 4.53189 15.3944C4.60873 15.5243 4.5589 15.6077 4.57985 15.7367C4.59103 15.8052 4.60081 15.8531 4.58079 15.9235C4.50627 16.1866 4.62456 16.4572 4.59057 16.7273C4.56045 16.9713 4.5502 17.2509 4.55983 17.566C4.5679 17.82 4.56526 18.1798 4.55191 18.6456C4.54539 18.8784 4.7056 19.1164 4.49789 19.3092C4.4929 19.3138 4.48937 19.3198 4.48772 19.3264C4.48606 19.333 4.48636 19.34 4.48857 19.3465C4.519 19.4334 4.49059 19.4883 4.40335 19.5113C4.38658 19.5157 4.37665 19.5265 4.37354 19.5439C4.36112 19.6116 4.32557 19.6487 4.26689 19.6552C4.25106 19.6571 4.23569 19.6613 4.22079 19.6678L3.85194 19.8387C3.848 19.8405 3.8446 19.8433 3.84213 19.8468C3.83966 19.8504 3.8382 19.8545 3.83791 19.8588C3.83763 19.8631 3.83852 19.8675 3.8405 19.8713C3.84248 19.8751 3.84547 19.8784 3.84915 19.8806C3.92149 19.9257 3.99026 19.9725 4.05546 20.0213C4.06695 20.03 4.08247 20.037 4.10203 20.0422C4.14426 20.054 4.1469 20.0759 4.10995 20.1079C3.45236 19.7055 2.7836 19.3199 2.12182 18.9231C1.85636 18.7639 1.58361 18.6178 1.30356 18.4849C0.97383 18.2017 0.705114 17.8529 0.636654 17.4226C0.505788 16.5992 1.02878 16.0227 1.68591 15.6384C2.51581 15.1535 3.3482 14.6726 4.18307 14.1957Z" fill="#8401FD"/>
<path d="M1.30359 18.4849C1.58364 18.6178 1.85639 18.7639 2.12185 18.9231C2.78363 19.3199 3.45239 19.7055 4.10998 20.1079C4.29534 20.2014 4.44964 20.311 4.5729 20.4367C3.86734 20.0357 3.19765 19.6417 2.46694 19.224C2.06643 18.9949 1.67864 18.7485 1.30359 18.4849Z" fill="#B029FD"/>
<path d="M17.271 19.4899L23.0845 23.211L23.0189 23.4145C22.9031 23.3344 22.7818 23.264 22.6552 23.2035C22.4419 23.1015 22.3198 22.9879 22.1643 22.8309C22.1531 22.8198 22.1396 22.8151 22.1238 22.817C22.0999 22.8198 22.0823 22.8153 22.0711 22.8035C22.0112 22.7398 21.9432 22.6867 21.8672 22.6442C21.5834 22.4355 21.2768 22.2497 20.9474 22.0867C20.8375 22.0243 20.7237 21.9619 20.606 21.8995C20.4921 21.8386 20.3831 21.7693 20.2791 21.6913C19.791 21.3248 19.2261 21.0011 18.746 20.6044C18.6817 20.5513 18.6207 20.5447 18.5415 20.5447C18.5316 20.5447 18.5292 20.5491 18.5345 20.5578C18.5535 20.5891 18.559 20.6242 18.5513 20.663C18.5162 20.8385 18.4822 21.0139 18.4493 21.1893C18.4468 21.2026 18.4392 21.2138 18.4265 21.2228C18.415 21.2312 18.4083 21.2422 18.4064 21.2559C18.3981 21.3115 18.3771 21.3855 18.3436 21.478C18.2742 21.6699 18.3128 21.8771 18.3119 22.0523C18.311 22.165 18.2607 22.4192 18.2975 22.4989C18.3037 22.5125 18.3068 22.527 18.3068 22.5422C18.3096 22.9458 18.3121 23.3493 18.3142 23.7526C18.3156 24.0008 18.3347 24.2849 18.3133 24.5177C18.2577 25.1179 18.2524 25.7185 18.2975 26.3196C18.3018 26.3755 18.3001 26.4463 18.2923 26.532C18.2705 26.7802 18.3208 27.0675 18.256 27.3106C18.2048 27.5044 18.1633 27.7642 18.2621 27.951C18.3108 28.0429 18.3394 28.1424 18.3478 28.2495C18.3481 28.254 18.3499 28.2583 18.3529 28.2616L18.4018 28.3147C18.4046 28.3174 18.4062 28.321 18.4063 28.3249C18.4064 28.3287 18.4049 28.3324 18.4023 28.3352C18.3996 28.338 18.3959 28.3396 18.3921 28.3397C18.3883 28.3398 18.3845 28.3383 18.3818 28.3357C18.3743 28.3298 18.3679 28.3292 18.3627 28.3338C18.3506 28.3441 18.3512 28.3534 18.3645 28.3618C18.5682 28.4925 18.7435 28.653 18.8903 28.8433C18.899 28.8548 18.897 28.8639 18.8843 28.8708L18.67 28.983L17.6851 28.3813C17.753 28.3186 17.7867 28.2694 17.7861 28.2337C17.7855 28.1769 17.7619 28.1424 17.7153 28.1303C17.7017 28.1269 17.6897 28.1204 17.6795 28.1107L17.5579 27.9966C17.547 27.9861 17.538 27.9741 17.5309 27.9608C17.5095 27.9204 17.478 27.8883 17.4364 27.8644C17.4236 27.8569 17.4154 27.8461 17.4117 27.8318C17.4058 27.8094 17.4084 27.7892 17.4196 27.7712C17.4267 27.76 17.4292 27.7479 17.427 27.7349L17.3167 27.1481C17.3164 27.1456 17.3153 27.1451 17.3134 27.1467L17.3022 27.1583C17.2982 27.1624 17.2954 27.1616 17.2939 27.156L17.2436 26.9804C17.2377 26.9603 17.2451 26.9502 17.2659 26.9502H17.2929C17.3 26.9502 17.3067 26.9474 17.3117 26.9424C17.3167 26.9374 17.3195 26.9307 17.3195 26.9236C17.3188 26.8361 17.3089 26.7841 17.2897 26.7676C17.28 26.7595 17.2771 26.7494 17.2808 26.7373C17.3306 26.5804 17.2627 26.4216 17.2487 26.308C17.2361 26.2092 17.2091 26.131 17.2147 26.0304C17.2451 25.4911 17.26 24.9516 17.2594 24.412C17.2594 24.2206 17.2925 23.9603 17.2934 23.7405C17.2962 23.0978 17.2965 22.4549 17.2943 21.8119C17.2934 21.4957 17.3237 21.1073 17.3181 20.7562C17.314 20.5087 17.312 20.2611 17.312 20.0134C17.312 19.9395 17.2813 19.8983 17.2198 19.8899C17.2015 19.8875 17.1967 19.8781 17.2054 19.862L17.2436 19.7917C17.249 19.7821 17.2506 19.7709 17.2482 19.7605C17.2262 19.6658 17.2338 19.5756 17.271 19.4899Z" fill="#A296F0"/>
<path d="M20.9474 22.0867C20.8384 22.2746 20.8005 22.4728 20.8337 22.6814C20.8603 22.8449 20.8435 22.993 20.8742 23.1523C20.8767 23.1653 20.8752 23.1788 20.87 23.1909C20.8452 23.2499 20.8568 23.2991 20.905 23.3386C20.9101 23.3426 20.9141 23.3481 20.9164 23.3543C20.9187 23.3605 20.9193 23.3673 20.918 23.374C20.9036 23.4517 20.8626 23.5006 20.8561 23.5761C20.8347 23.8411 20.8742 24.0939 20.8542 24.3561C20.8426 24.5094 20.904 24.6407 20.8854 24.7883C20.8579 25.0007 20.8663 25.1991 20.8165 25.4115C20.7858 25.5425 20.7726 25.6477 20.7769 25.7272C20.7903 25.9877 20.7819 26.3138 20.7518 26.7057C20.7493 26.7392 20.7545 26.8191 20.7676 26.9455C20.7679 26.9468 20.7687 26.9475 20.7699 26.9478C20.774 26.9488 20.7778 26.9495 20.7816 26.9502C20.7906 26.952 20.796 26.9575 20.7979 26.9665C20.8184 27.0815 20.7662 27.1793 20.7597 27.271C20.7451 27.4735 20.7382 27.6761 20.7392 27.8788C20.7401 28.0437 20.7913 28.3156 20.755 28.5397C20.7247 28.7245 20.735 28.8633 20.7313 29.037C20.7275 29.1996 20.653 29.3565 20.6689 29.5442C20.6786 29.662 20.7699 29.75 20.7676 29.8776C20.7674 29.8903 20.7635 29.9027 20.7563 29.9132C20.7491 29.9236 20.739 29.9317 20.7272 29.9365C20.7154 29.9413 20.7024 29.9425 20.6899 29.94C20.6774 29.9374 20.6658 29.9313 20.6567 29.9224L20.4807 29.7459C20.4779 29.7431 20.4748 29.7427 20.4714 29.7449L20.4607 29.751C20.4507 29.7572 20.4498 29.7645 20.4579 29.7729C20.5017 29.8179 20.5212 29.8725 20.5166 29.9368C20.5156 29.9492 20.5104 29.9595 20.5007 29.9675L20.4011 30.05L18.67 28.983L18.8842 28.8708C18.897 28.8639 18.899 28.8548 18.8903 28.8433C18.7434 28.653 18.5682 28.4925 18.3645 28.3617C18.3512 28.3534 18.3505 28.3441 18.3626 28.3338C18.3679 28.3291 18.3743 28.3298 18.3817 28.3357C18.3845 28.3383 18.3882 28.3398 18.3921 28.3397C18.3959 28.3396 18.3996 28.338 18.4022 28.3352C18.4049 28.3324 18.4063 28.3287 18.4062 28.3249C18.4062 28.321 18.4045 28.3174 18.4018 28.3147L18.3529 28.2616C18.3498 28.2583 18.348 28.254 18.3477 28.2495C18.3394 28.1424 18.3108 28.0429 18.262 27.951C18.1633 27.7642 18.2048 27.5044 18.256 27.3106C18.3207 27.0675 18.2704 26.7802 18.2923 26.532C18.3001 26.4463 18.3018 26.3755 18.2974 26.3196C18.2524 25.7185 18.2577 25.1179 18.3133 24.5177C18.3347 24.2849 18.3156 24.0008 18.3142 23.7526C18.312 23.3493 18.3096 22.9458 18.3068 22.5422C18.3068 22.527 18.3037 22.5125 18.2974 22.4989C18.2606 22.4192 18.3109 22.165 18.3119 22.0523C18.3128 21.8771 18.2742 21.6699 18.3435 21.478C18.3771 21.3855 18.398 21.3115 18.4064 21.2559C18.4083 21.2422 18.415 21.2312 18.4264 21.2228C18.4392 21.2138 18.4468 21.2026 18.4493 21.1893C18.4822 21.0139 18.5162 20.8384 18.5513 20.663C18.559 20.6242 18.5534 20.5891 18.5345 20.5578C18.5292 20.5491 18.5315 20.5447 18.5415 20.5447C18.6206 20.5447 18.6817 20.5513 18.7459 20.6043C19.2261 21.0011 19.791 21.3248 20.2791 21.6913C20.3831 21.7693 20.492 21.8386 20.606 21.8995C20.7237 21.9619 20.8374 22.0243 20.9474 22.0867Z" fill="#98A4EE"/>
<path d="M5.35754 20.8912C5.64303 20.9709 5.90383 21.1669 6.10176 21.2778C6.44173 21.4678 6.69647 21.662 6.98941 21.8096C7.26915 21.9503 7.54392 22.0979 7.81372 22.2525C8.03354 22.4084 8.26375 22.55 8.50437 22.6772C8.63043 22.744 8.87508 22.9353 9.23834 23.251L5.35754 20.8912Z" fill="#B95DFB"/>
<path d="M20.9474 22.0867C21.2768 22.2497 21.5834 22.4355 21.8672 22.6442C21.8771 22.733 21.9239 22.8004 22.0074 22.8463C22.021 22.8538 22.0288 22.8652 22.0307 22.8808C22.0462 23.0208 22.0678 23.1608 22.0954 23.3008C22.1168 23.4094 22.1904 23.4373 22.1937 23.57C22.2006 23.8318 22.3073 24.0083 22.2207 24.2877C22.1895 24.3878 22.2384 24.487 22.2244 24.5946C22.1915 24.8566 22.1895 25.1288 22.2183 25.411C22.2224 25.452 22.234 25.4541 22.2533 25.4175C22.3132 25.3039 22.3475 25.1828 22.3562 25.0543C22.3627 24.9589 22.3708 24.9589 22.3804 25.0543C22.3854 25.1024 22.3869 25.1592 22.3851 25.2247C22.3809 25.3514 22.4396 25.4492 22.4312 25.5847C22.4259 25.6664 22.426 25.7306 22.4316 25.7775C22.4596 26.0099 22.4121 26.2088 22.4605 26.4621C22.4633 26.477 22.4709 26.4891 22.4833 26.4984C22.5097 26.518 22.5186 26.5441 22.5099 26.5767C22.508 26.5835 22.5046 26.5894 22.4996 26.5944L22.4889 26.6055C22.4799 26.6142 22.4771 26.6246 22.4805 26.6368L22.5737 26.9758C22.5768 26.9876 22.5763 26.9992 22.5723 27.0107C22.5254 27.1374 22.527 27.2627 22.5769 27.3865C22.5795 27.3932 22.5806 27.4004 22.58 27.4075C22.5795 27.4146 22.5773 27.4214 22.5737 27.4275C22.5131 27.5291 22.4717 27.6096 22.4885 27.7344C22.5038 27.8504 22.5299 27.9496 22.5099 28.0707C22.4853 28.2222 22.4878 28.3732 22.5173 28.5238C22.5204 28.5387 22.5193 28.5533 22.5141 28.5676C22.461 28.7098 22.4332 28.8567 22.4307 29.0082C22.4284 29.1698 22.3366 29.2461 22.3841 29.4264C22.4549 29.6928 22.4712 29.92 22.4004 30.138C22.3955 30.1529 22.3852 30.1583 22.3697 30.1543C22.3436 30.1475 22.3306 30.1274 22.3306 30.0942C22.3306 30.0853 22.3323 30.0764 22.3357 30.0681C22.3466 30.0399 22.3473 30.0136 22.338 29.9894C22.3265 29.9602 22.318 29.961 22.3124 29.9918C22.3012 30.0514 22.2772 30.1051 22.2402 30.1529C22.2297 30.1662 22.2255 30.1813 22.2277 30.1981L22.2523 30.3969C22.2542 30.4121 22.2516 30.4264 22.2444 30.4398C22.2149 30.495 22.1999 30.5543 22.1992 30.6177C22.1992 30.6211 22.1977 30.6222 22.1946 30.6209C22.1899 30.6191 22.1845 30.6178 22.1783 30.6172C22.1671 30.6163 22.1615 30.6214 22.1615 30.6326V30.6503C22.1615 30.6667 22.1538 30.6723 22.1382 30.667L22.0539 30.6386C22.0406 30.634 22.0271 30.634 22.0134 30.6386L21.8965 30.6782C21.892 30.6797 21.8872 30.6802 21.8826 30.6797C21.8779 30.6792 21.8735 30.6778 21.8695 30.6754C21.8198 30.6462 21.7668 30.6312 21.7102 30.6302C21.6789 30.6296 21.6615 30.6155 21.6581 30.5879C21.6562 30.5717 21.6475 30.5657 21.632 30.5697C21.5721 30.5852 21.5291 30.5668 21.503 30.5143C21.4959 30.4997 21.4847 30.4952 21.4695 30.5008L21.4434 30.5106C21.4393 30.512 21.4355 30.5143 21.4323 30.5172C21.4291 30.5201 21.4264 30.5237 21.4246 30.5276C21.4227 30.5315 21.4216 30.5358 21.4214 30.5401C21.4212 30.5445 21.4219 30.5488 21.4234 30.5529C21.4401 30.6017 21.4249 30.6275 21.3777 30.6302L20.4011 30.05L20.5008 29.9675C20.5104 29.9595 20.5157 29.9492 20.5166 29.9368C20.5213 29.8725 20.5017 29.8179 20.4579 29.7729C20.4499 29.7645 20.4508 29.7572 20.4607 29.751L20.4714 29.7449C20.4749 29.7428 20.478 29.7431 20.4808 29.7459L20.6568 29.9224C20.6659 29.9313 20.6774 29.9374 20.6899 29.94C20.7025 29.9425 20.7154 29.9413 20.7273 29.9365C20.7391 29.9318 20.7492 29.9236 20.7564 29.9132C20.7635 29.9027 20.7675 29.8904 20.7676 29.8777C20.77 29.75 20.6787 29.662 20.6689 29.5442C20.6531 29.3565 20.7276 29.1996 20.7313 29.037C20.735 28.8633 20.7248 28.7245 20.7551 28.5397C20.7914 28.3156 20.7402 28.0437 20.7392 27.8788C20.7383 27.6761 20.7451 27.4735 20.7597 27.2711C20.7662 27.1793 20.8184 27.0815 20.7979 26.9665C20.796 26.9575 20.7906 26.952 20.7816 26.9502C20.7779 26.9496 20.774 26.9488 20.77 26.9478C20.7687 26.9475 20.768 26.9468 20.7676 26.9455C20.7546 26.8192 20.7493 26.7392 20.7518 26.7057C20.7819 26.3139 20.7903 25.9877 20.777 25.7272C20.7726 25.6477 20.7858 25.5425 20.8165 25.4115C20.8664 25.1991 20.858 25.0007 20.8855 24.7883C20.9041 24.6407 20.8426 24.5094 20.8543 24.3561C20.8743 24.094 20.8347 23.8411 20.8561 23.5761C20.8626 23.5006 20.9036 23.4517 20.9181 23.374C20.9193 23.3673 20.9188 23.3605 20.9165 23.3543C20.9142 23.3481 20.9102 23.3426 20.905 23.3386C20.8569 23.2991 20.8453 23.2499 20.8701 23.1909C20.8753 23.1788 20.8767 23.1653 20.8743 23.1523C20.8436 22.993 20.8603 22.8449 20.8338 22.6814C20.8005 22.4728 20.8384 22.2746 20.9474 22.0867Z" fill="#8CB0EE"/>
<path d="M21.8671 22.6442C21.9432 22.6867 22.0112 22.7398 22.0711 22.8035C22.0823 22.8153 22.0999 22.8198 22.1238 22.817C22.1396 22.8151 22.1531 22.8198 22.1643 22.8309C22.3198 22.9879 22.4418 23.1015 22.6551 23.2035C22.7818 23.264 22.9031 23.3344 23.0189 23.4145C23.3113 23.6026 23.6027 23.7926 23.893 23.9845C23.9843 24.045 24.3755 24.1587 24.3815 24.3007C24.3822 24.3091 24.3789 24.3111 24.3718 24.3068L24.3569 24.2979C24.3539 24.2963 24.3505 24.2956 24.3472 24.2961C24.3439 24.2965 24.3408 24.298 24.3384 24.3004C24.336 24.3028 24.3345 24.3059 24.334 24.3092C24.3336 24.3126 24.3342 24.316 24.3359 24.3189L24.4961 24.609C24.4992 24.6148 24.5006 24.6214 24.5003 24.6281C24.4938 24.7464 24.5366 24.845 24.6288 24.9239C24.7169 24.9993 24.6745 25.065 24.6661 25.1562C24.6422 25.4158 24.6459 25.6741 24.6773 25.9312C24.7355 26.4048 24.7336 26.9017 24.6861 27.3763C24.6503 27.7363 24.6675 28.0423 24.6931 28.4442C24.7169 28.8251 24.6843 29.2867 24.7406 29.7128C24.7755 29.9768 24.7131 30.2423 24.7089 30.5096C24.7038 30.8603 24.5841 31.1872 24.6083 31.5253C24.6198 31.6843 24.6083 31.8428 24.5739 32.0008C24.5705 32.0161 24.5635 32.0291 24.5529 32.04L24.4141 32.1815C24.4039 32.1918 24.3923 32.1935 24.3792 32.1867L24.362 32.1773C24.3511 32.1714 24.3395 32.1693 24.3271 32.1708C24.1678 32.1904 24.0048 31.9687 23.852 32.0083C23.8073 32.0198 23.7902 32.049 23.8008 32.0958L21.3777 30.6302C21.4249 30.6275 21.4401 30.6017 21.4233 30.5529C21.4218 30.5488 21.4212 30.5445 21.4214 30.5401C21.4216 30.5358 21.4227 30.5315 21.4245 30.5276C21.4264 30.5236 21.429 30.5201 21.4322 30.5172C21.4355 30.5143 21.4392 30.512 21.4433 30.5106L21.4694 30.5008C21.4846 30.4952 21.4958 30.4997 21.503 30.5143C21.529 30.5668 21.572 30.5852 21.632 30.5697C21.6475 30.5657 21.6562 30.5717 21.658 30.5879C21.6615 30.6155 21.6788 30.6296 21.7102 30.6302C21.7667 30.6312 21.8198 30.6462 21.8695 30.6754C21.8734 30.6778 21.8779 30.6792 21.8825 30.6797C21.8872 30.6802 21.8919 30.6797 21.8965 30.6782L22.0134 30.6386C22.027 30.634 22.0406 30.634 22.0539 30.6386L22.1382 30.667C22.1537 30.6723 22.1615 30.6667 22.1615 30.6503V30.6326C22.1615 30.6214 22.1671 30.6163 22.1782 30.6172C22.1845 30.6178 22.1899 30.6191 22.1945 30.6209C22.1977 30.6222 22.1992 30.6211 22.1992 30.6177C22.1998 30.5543 22.2149 30.495 22.2444 30.4398C22.2515 30.4264 22.2542 30.4121 22.2523 30.3969L22.2276 30.1981C22.2254 30.1813 22.2296 30.1662 22.2402 30.1529C22.2771 30.1051 22.3012 30.0514 22.3124 29.9918C22.318 29.961 22.3265 29.9602 22.338 29.9894C22.3473 30.0136 22.3465 30.0399 22.3357 30.0681C22.3323 30.0764 22.3305 30.0853 22.3305 30.0942C22.3305 30.1274 22.3436 30.1475 22.3697 30.1543C22.3852 30.1583 22.3954 30.1529 22.4004 30.138C22.4712 29.92 22.4549 29.6928 22.3841 29.4264C22.3366 29.2461 22.4283 29.1698 22.4307 29.0082C22.4331 28.8567 22.4609 28.7098 22.514 28.5676C22.5193 28.5533 22.5204 28.5387 22.5173 28.5238C22.4878 28.3732 22.4853 28.2222 22.5098 28.0707C22.5299 27.9496 22.5038 27.8504 22.4884 27.7344C22.4716 27.6096 22.5131 27.5291 22.5736 27.4275C22.5773 27.4214 22.5794 27.4146 22.58 27.4075C22.5806 27.4004 22.5795 27.3932 22.5769 27.3865C22.5269 27.2627 22.5254 27.1374 22.5722 27.0107C22.5763 26.9992 22.5767 26.9876 22.5736 26.9758L22.4805 26.6367C22.4771 26.6246 22.4799 26.6142 22.4889 26.6055L22.4996 26.5944C22.5046 26.5894 22.508 26.5835 22.5098 26.5767C22.5185 26.5441 22.5097 26.518 22.4833 26.4984C22.4709 26.4891 22.4633 26.477 22.4605 26.4621C22.412 26.2088 22.4595 26.0099 22.4316 25.7775C22.426 25.7306 22.4259 25.6664 22.4311 25.5847C22.4395 25.4492 22.3808 25.3514 22.385 25.2247C22.3869 25.1592 22.3853 25.1024 22.3804 25.0543C22.3707 24.9589 22.3627 24.9589 22.3561 25.0543C22.3475 25.1828 22.3131 25.3039 22.2532 25.4175C22.234 25.4541 22.2223 25.452 22.2183 25.411C22.1894 25.1288 22.1914 24.8566 22.2244 24.5946C22.2383 24.487 22.1894 24.3878 22.2206 24.2877C22.3073 24.0083 22.2006 23.8318 22.1936 23.57C22.1904 23.4373 22.1168 23.4094 22.0953 23.3008C22.0677 23.1608 22.0461 23.0208 22.0306 22.8808C22.0288 22.8652 22.021 22.8538 22.0073 22.8463C21.9238 22.8004 21.8771 22.733 21.8671 22.6442Z" fill="#7FBBF1"/>
<path d="M23.0845 23.211C24.4201 24.0449 25.7504 24.8874 27.0752 25.7384C27.8138 26.2129 28.5552 26.6805 29.1658 27.1071C29.8504 27.5849 30.4157 28.331 30.5918 29.1819C30.8349 30.3569 30.46 31.6297 29.5579 32.4232C28.4774 33.3738 26.9257 33.6658 25.5905 33.0827C24.9658 32.8095 24.3692 32.4805 23.8007 32.0958C23.7902 32.049 23.8073 32.0198 23.852 32.0083C24.0047 31.9687 24.1677 32.1904 24.327 32.1708C24.3394 32.1693 24.3511 32.1714 24.3619 32.1773L24.3792 32.1867C24.3922 32.1935 24.4038 32.1918 24.4141 32.1815L24.5529 32.04C24.5634 32.0291 24.5704 32.0161 24.5738 32.0008C24.6083 31.8428 24.6198 31.6843 24.6083 31.5253C24.5841 31.1872 24.7038 30.8603 24.7089 30.5096C24.7131 30.2423 24.7755 29.9768 24.7405 29.7128C24.6842 29.2867 24.7168 28.8251 24.693 28.4442C24.6674 28.0423 24.6502 27.7363 24.6861 27.3763C24.7336 26.9017 24.7354 26.4048 24.6772 25.9312C24.6459 25.6741 24.6421 25.4158 24.666 25.1562C24.6744 25.065 24.7168 24.9993 24.6288 24.9238C24.5366 24.845 24.4937 24.7464 24.5002 24.6281C24.5005 24.6214 24.4991 24.6148 24.496 24.609L24.3358 24.3189C24.3342 24.316 24.3335 24.3126 24.334 24.3092C24.3344 24.3059 24.336 24.3028 24.3383 24.3004C24.3407 24.298 24.3438 24.2965 24.3471 24.2961C24.3505 24.2956 24.3539 24.2963 24.3568 24.2979L24.3717 24.3068C24.3788 24.3111 24.3821 24.3091 24.3815 24.3007C24.3754 24.1587 23.9842 24.045 23.8929 23.9845C23.6026 23.7926 23.3113 23.6026 23.0188 23.4145L23.0845 23.211Z" fill="#58CCFF"/>
</svg>
